<svg class="animated" id="freepik_stories-beach" xmlns="http://www.w3.org/2000/svg" viewBox="0 0 500 500" version="1.1" xmlns:xlink="http://www.w3.org/1999/xlink" xmlns:svgjs="http://svgjs.com/svgjs"><style>svg#freepik_stories-beach:not(.animated) .animable {opacity: 0;}svg#freepik_stories-beach.animated #freepik--background-simple--inject-61 {animation: 3s Infinite  linear floating;animation-delay: 0s;}svg#freepik_stories-beach.animated #freepik--Clouds--inject-61 {animation: 3s Infinite  linear floating;animation-delay: 0s;}            @keyframes floating {                0% {                    opacity: 1;                    transform: translateY(0px);                }                50% {                    transform: translateY(-10px);                }                100% {                    opacity: 1;                    transform: translateY(0px);                }            }        </style><g id="freepik--background-simple--inject-61" class="animable" style="transform-origin: 258.815px 239.112px;"><path d="M426.21,190.38a383.72,383.72,0,0,0-14.4-36.63C400.43,128.32,384,99.92,356.16,86.12,307.39,61.88,243.9,75.73,206,106.2s-41.81,94.87-82.84,120.49-65,82.4-13.16,133c29.75,29,73.81,40.69,116.51,43.5,48.06,3.17,106.51,2.36,146.94-24.46,36.05-23.93,55.72-64,61.77-102.9a155.94,155.94,0,0,0,.28-47.93A237.18,237.18,0,0,0,426.21,190.38Z" style="fill: #0098FF; transform-origin: 258.815px 239.112px;" id="el12lil8d6co6l" class="animable"></path><g id="elpw906n4su0f"><path d="M426.21,190.38a383.72,383.72,0,0,0-14.4-36.63C400.43,128.32,384,99.92,356.16,86.12,307.39,61.88,243.9,75.73,206,106.2s-41.81,94.87-82.84,120.49-65,82.4-13.16,133c29.75,29,73.81,40.69,116.51,43.5,48.06,3.17,106.51,2.36,146.94-24.46,36.05-23.93,55.72-64,61.77-102.9a155.94,155.94,0,0,0,.28-47.93A237.18,237.18,0,0,0,426.21,190.38Z" style="fill: rgb(255, 255, 255); opacity: 0.7; transform-origin: 258.815px 239.112px;" class="animable" id="elcl5nzom4yq"></path></g></g><g id="freepik--Clouds--inject-61" class="animable animator-active" style="transform-origin: 297.53px 190.828px;"><path d="M419.66,277.53c-9.08-4.95-13.21-.83-16.51-4.95s9.08-14.86-15.69-25.59c0,0-1.65-23.12-35.49-23.94s-24.77,23.11-33.85,28.89-11.55-3.3-20.63,2.48-5,17.33-12.39,19-17.33-7.43-26.41-1.65-9.08,10.73-13.21,10.73-12.38-3.3-17.33,0-10.73,7.43-10.73,7.43H426.26S428.74,282.48,419.66,277.53Z" style="fill: #0098FF; transform-origin: 321.995px 256.48px;" id="el7reyxq11kt9" class="animable"></path><path d="M253.49,201c-3.82-2.08-5.55-.35-6.94-2.08s3.82-6.25-6.59-10.76c0,0-.7-9.71-14.92-10.06s-10.41,9.71-14.22,12.14-4.86-1.39-8.68,1-2.08,7.29-5.2,8-7.29-3.12-11.1-.69-3.82,4.51-5.55,4.51-5.21-1.39-7.29,0-4.51,3.12-4.51,3.12h87.77S257.3,203.07,253.49,201Z" style="fill: #0098FF; transform-origin: 212.44px 192.136px;" id="elwkn0ync1uen" class="animable"></path><g id="elfvkot8sbfsg"><path d="M419.66,277.53c-9.08-4.95-13.21-.83-16.51-4.95s9.08-14.86-15.69-25.59c0,0-1.65-23.12-35.49-23.94s-24.77,23.11-33.85,28.89-11.55-3.3-20.63,2.48-5,17.33-12.39,19-17.33-7.43-26.41-1.65-9.08,10.73-13.21,10.73-12.38-3.3-17.33,0-10.73,7.43-10.73,7.43H426.26S428.74,282.48,419.66,277.53Z" style="fill: rgb(255, 255, 255); opacity: 0.4; transform-origin: 321.995px 256.48px;" class="animable" id="elp611kdnhbhi"></path></g><g id="el5jb1o4dri8"><g style="opacity: 0.4; transform-origin: 212.44px 192.136px;" class="animable" id="elik1m6jnmzwk"><path d="M253.49,201c-3.82-2.08-5.55-.35-6.94-2.08s3.82-6.25-6.59-10.76c0,0-.7-9.71-14.92-10.06s-10.41,9.71-14.22,12.14-4.86-1.39-8.68,1-2.08,7.29-5.2,8-7.29-3.12-11.1-.69-3.82,4.51-5.55,4.51-5.21-1.39-7.29,0-4.51,3.12-4.51,3.12h87.77S257.3,203.07,253.49,201Z" style="fill: rgb(255, 255, 255); transform-origin: 212.44px 192.136px;" id="elq6coukdfyip" class="animable"></path></g></g><g id="elpfoj3yl78vj"><circle cx="353.85" cy="116.15" r="17.27" style="fill: #0098FF; transform-origin: 353.85px 116.15px; transform: rotate(-45deg);" class="animable" id="elhgnn6or43b9"></circle></g></g><g id="freepik--Sand--inject-61" class="animable" style="transform-origin: 247.575px 293.504px;"><path d="M81,288.06c-3.05,22.65,4.56,47.8,29,71.59,29.75,29,73.81,40.69,116.51,43.5,48.06,3.17,106.51,2.36,146.94-24.46,32.26-21.41,51.4-55.76,59.4-90.63Z" style="fill: #0098FF; transform-origin: 256.606px 346.25px;" id="elscsi9y18hrd" class="animable"></path><g id="eldfgybw4vd96"><path d="M81,288.06c-3.05,22.65,4.56,47.8,29,71.59,29.75,29,73.81,40.69,116.51,43.5,48.06,3.17,106.51,2.36,146.94-24.46,32.26-21.41,51.4-55.76,59.4-90.63Z" style="fill: rgb(255, 255, 255); opacity: 0.5; transform-origin: 256.606px 346.25px;" class="animable" id="elo5zmyd6qxx8"></path></g><path d="M80.59,303H428.68q2.42-7.42,4.14-14.94H81A71.45,71.45,0,0,0,80.59,303Z" style="fill: #0098FF; transform-origin: 256.598px 295.53px;" id="eloy3rtdhf5qp" class="animable"></path><path d="M80.59,303H428.68c.45-1.39.88-2.78,1.3-4.18h-5.72c-5.44,0-26.72-3.17-42.57-2.26s-27.62,1.36-38.49,1.81-23.09,1.81-35.77,1.81-21.29.91-36.23.91-28.53-.91-44.83-1.81-22.19,0-37.13,1.81-33.06-2.72-50.27-2.72-19,3.17-31.24,1.36c-9.38-1.39-22-.38-27.3.16C80.47,300.93,80.51,302,80.59,303Z" style="fill: rgb(255, 255, 255); transform-origin: 255.205px 299.698px;" id="elhh9sc7j1bb" class="animable"></path><path d="M356,355.42s6.76-.85,11.82-2.11,10.13,2.53,16.46,2.11a30.06,30.06,0,0,1,12.24,2.11l-11.39.84,11,2.53A52.79,52.79,0,0,1,382.17,363H364.45c-4.22,0-11-.85-11-.85l11.4-2.11L350.1,358Z" style="fill: #0098FF; transform-origin: 373.31px 358.026px;" id="el71x4rfaogp7" class="animable"></path><g id="el95l0z2z8v2s"><path d="M356,355.77s6.76-1,11.82-2.35,10.13,2.33,16.46,1.77a29.72,29.72,0,0,1,12.24,1.86l-11.39,1.08,11,2.31a53.36,53.36,0,0,1-13.93,2.39l-17.72.37c-4.22.08-11-.62-11-.62l11.4-2.35-14.77-1.81Z" style="fill: rgb(255, 255, 255); opacity: 0.5; transform-origin: 373.315px 358.163px;" class="animable" id="elhbxj5iok7fa"></path></g><path d="M390.65,356.48s8.36-.92,14.64-2.3,12.55,2.77,20.39,2.3a41.57,41.57,0,0,1,15.16,2.31l-14.12.93,13.6,2.77a74,74,0,0,1-17.26,2.3h-22c-5.22,0-13.59-.92-13.59-.92l14.12-2.31-18.3-2.31Z" style="fill: #0098FF; transform-origin: 412.065px 359.344px;" id="eliquv9143wbs" class="animable"></path><g id="eltk7csmiu8bd"><path d="M390.65,356.87s8.36-1.07,14.64-2.57,12.55,2.54,20.39,1.94a41.31,41.31,0,0,1,15.16,2l-14.12,1.18,13.6,2.53a74.3,74.3,0,0,1-17.26,2.62l-22,.39c-5.22.1-13.59-.68-13.59-.68l14.12-2.56-18.3-2Z" style="fill: rgb(255, 255, 255); opacity: 0.5; transform-origin: 412.065px 359.466px;" class="animable" id="el54j7bu66ura"></path></g><path d="M332.78,358.55s6.75-.85,11.81-2.12,10.13,2.54,16.47,2.12a29.92,29.92,0,0,1,12.24,2.11l-11.4.84,11,2.53A53,53,0,0,1,359,366.14H341.22c-4.22,0-11-.84-11-.84l11.4-2.11-14.77-2.11Z" style="fill: #0098FF; transform-origin: 350.075px 361.155px;" id="el0t2ejvx7306f" class="animable"></path><g id="eltejbwcpkgmi"><path d="M332.78,358.9s6.75-1,11.81-2.35,10.13,2.32,16.47,1.77a29.77,29.77,0,0,1,12.24,1.86l-11.4,1.08,11,2.31A53.34,53.34,0,0,1,359,366l-17.73.36c-4.22.09-11-.62-11-.62l11.4-2.34-14.77-1.81Z" style="fill: rgb(255, 255, 255); opacity: 0.5; transform-origin: 350.1px 361.309px;" class="animable" id="el5gcxioasbpi"></path></g><path d="M367.42,359.61s8.36-.92,14.64-2.31,12.55,2.77,20.39,2.31a41.57,41.57,0,0,1,15.16,2.31l-14.11.92,13.59,2.77a73.64,73.64,0,0,1-17.25,2.31h-22c-5.23,0-13.6-.92-13.6-.92l14.12-2.31-18.3-2.31Z" style="fill: #0098FF; transform-origin: 388.835px 362.467px;" id="elqi6atra9m8n" class="animable"></path><g id="ela8lyu5amwp4"><path d="M367.42,360s8.36-1.08,14.64-2.57,12.55,2.54,20.39,1.94a41.07,41.07,0,0,1,15.16,2l-14.11,1.18,13.59,2.53a74.57,74.57,0,0,1-17.25,2.61l-22,.4c-5.23.09-13.6-.68-13.6-.68l14.12-2.56-18.3-2Z" style="fill: rgb(255, 255, 255); opacity: 0.5; transform-origin: 388.835px 362.597px;" class="animable" id="elpdsk9d5694r"></path></g><path d="M336.82,346a119.16,119.16,0,0,0,11.81-2.11c5.07-1.26,10.13,2.53,16.46,2.11a30.06,30.06,0,0,1,12.24,2.11l-11.39.85,11,2.53A53,53,0,0,1,363,353.58H345.26c-4.22,0-11-.84-11-.84l11.4-2.11-14.77-2.11Z" style="fill: #0098FF; transform-origin: 354.11px 348.606px;" id="elci7b0bqyvm" class="animable"></path><g id="eltv6hrwfl65p"><path d="M336.82,346.34s6.75-1,11.81-2.36,10.13,2.33,16.46,1.78a29.72,29.72,0,0,1,12.24,1.86l-11.39,1.08,11,2.3A53.61,53.61,0,0,1,363,353.4l-17.72.36c-4.22.09-11-.62-11-.62l11.4-2.34L330.91,349Z" style="fill: rgb(255, 255, 255); opacity: 0.5; transform-origin: 354.12px 348.722px;" class="animable" id="elq4u8opvmqm"></path></g><path d="M371.46,347.05s8.36-.92,14.64-2.31,12.55,2.77,20.39,2.31a41.57,41.57,0,0,1,15.16,2.31l-14.11.92,13.59,2.77a73.64,73.64,0,0,1-17.25,2.31h-22c-5.23,0-13.6-.92-13.6-.92l14.12-2.31-18.3-2.31Z" style="fill: #0098FF; transform-origin: 392.875px 349.907px;" id="elx58g2czz26" class="animable"></path><g id="elb0x9a7msctt"><path d="M371.46,347.44s8.36-1.08,14.64-2.58,12.55,2.55,20.39,1.94a41.2,41.2,0,0,1,15.16,2L407.54,350l13.59,2.52a74.27,74.27,0,0,1-17.25,2.62l-22,.4c-5.23.09-13.6-.68-13.6-.68l14.12-2.56-18.3-2Z" style="fill: rgb(255, 255, 255); opacity: 0.5; transform-origin: 392.875px 350.036px;" class="animable" id="elx8xhyof3968"></path></g><path d="M238,400.08A119.16,119.16,0,0,0,249.82,398c5.07-1.26,10.13,2.54,16.46,2.11a30.06,30.06,0,0,1,12.24,2.11l-11.39.85,11,2.53a53,53,0,0,1-13.93,2.11H246.45c-4.22,0-11-.84-11-.84l11.4-2.11-14.77-2.11Z" style="fill: #0098FF; transform-origin: 255.3px 402.726px;" id="elyg44z33y67" class="animable"></path><g id="elkw5q368bp7"><path d="M238,400.44s6.75-1,11.81-2.35,10.13,2.32,16.46,1.77a29.72,29.72,0,0,1,12.24,1.86l-11.39,1.08,11,2.31a53.84,53.84,0,0,1-13.93,2.39l-17.72.36c-4.22.09-11-.62-11-.62l11.4-2.34-14.77-1.81Z" style="fill: rgb(255, 255, 255); opacity: 0.5; transform-origin: 255.305px 402.829px;" class="animable" id="el5fsi3177lvs"></path></g><path d="M272.65,401.15s8.36-.92,14.64-2.31,12.55,2.77,20.39,2.31a41.57,41.57,0,0,1,15.16,2.31l-14.12.92,13.6,2.77a73.66,73.66,0,0,1-17.26,2.31h-22c-5.22,0-13.59-.92-13.59-.92l14.12-2.31-18.3-2.31Z" style="fill: #0098FF; transform-origin: 294.065px 404.007px;" id="el01yabua7imy2" class="animable"></path><g id="elgq3uoyvmk0f"><path d="M272.65,401.54s8.36-1.08,14.64-2.58,12.55,2.55,20.39,2a41.07,41.07,0,0,1,15.16,2l-14.12,1.18,13.6,2.52a74.3,74.3,0,0,1-17.26,2.62l-22,.4c-5.22.09-13.59-.68-13.59-.68l14.12-2.56-18.3-2Z" style="fill: rgb(255, 255, 255); opacity: 0.5; transform-origin: 294.065px 404.156px;" class="animable" id="elwfym2s1ss2"></path></g><path d="M214.78,403.21a119.16,119.16,0,0,0,11.81-2.11c5.07-1.26,10.13,2.53,16.47,2.11a30.11,30.11,0,0,1,12.24,2.11l-11.4.85,11,2.53A53,53,0,0,1,241,410.81H223.22c-4.22,0-11-.84-11-.84l11.4-2.12-14.77-2.11Z" style="fill: #0098FF; transform-origin: 232.075px 405.826px;" id="elo8iqk4dx4e" class="animable"></path><g id="elhreukqujmkh"><path d="M214.78,403.57s6.75-1,11.81-2.36,10.13,2.33,16.47,1.78a29.77,29.77,0,0,1,12.24,1.86l-11.4,1.08,11,2.3a53.59,53.59,0,0,1-13.92,2.4l-17.73.36c-4.22.09-11-.62-11-.62l11.4-2.34-14.77-1.81Z" style="fill: rgb(255, 255, 255); opacity: 0.5; transform-origin: 232.09px 405.952px;" class="animable" id="ely3tsznmc1jn"></path></g><path d="M249.42,404.28s8.36-.92,14.64-2.31,12.55,2.77,20.39,2.31a41.57,41.57,0,0,1,15.16,2.31l-14.11.92,13.59,2.77a73.64,73.64,0,0,1-17.25,2.31h-22c-5.23,0-13.6-.92-13.6-.92l14.12-2.31-18.3-2.31Z" style="fill: #0098FF; transform-origin: 270.835px 407.137px;" id="el8ye0txttjb5" class="animable"></path><g id="el6453gxqkg0w"><path d="M249.42,404.66s8.36-1.07,14.64-2.57,12.55,2.55,20.39,1.94a41.2,41.2,0,0,1,15.16,2l-14.11,1.18,13.59,2.52a74.27,74.27,0,0,1-17.25,2.62l-22,.4c-5.23.09-13.6-.68-13.6-.68l14.12-2.56-18.3-2Z" style="fill: rgb(255, 255, 255); opacity: 0.5; transform-origin: 270.835px 407.256px;" class="animable" id="elg4tgh8caq8m"></path></g><path d="M218.82,390.65a119.16,119.16,0,0,0,11.81-2.11c5.07-1.27,10.13,2.53,16.46,2.11a30.06,30.06,0,0,1,12.24,2.11l-11.39.84,11,2.54A53,53,0,0,1,245,398.25H227.26c-4.22,0-11-.85-11-.85l11.4-2.11-14.77-2.11Z" style="fill: #0098FF; transform-origin: 236.11px 393.265px;" id="eltgrhavichyl" class="animable"></path><g id="elubsvr4z3v6h"><path d="M218.82,391s6.75-1,11.81-2.35,10.13,2.33,16.46,1.78a29.54,29.54,0,0,1,12.24,1.86l-11.39,1.07,11,2.31a53.61,53.61,0,0,1-13.93,2.4l-17.72.36c-4.22.08-11-.62-11-.62l11.4-2.35-14.77-1.8Z" style="fill: rgb(255, 255, 255); opacity: 0.5; transform-origin: 236.125px 393.393px;" class="animable" id="elc6yo7ncvxvq"></path></g><path d="M253.46,391.72s8.36-.93,14.64-2.31,12.55,2.77,20.39,2.31a41.43,41.43,0,0,1,15.16,2.3l-14.11.93,13.59,2.77A73.64,73.64,0,0,1,285.88,400h-22c-5.23,0-13.6-.93-13.6-.93l14.12-2.31-18.3-2.3Z" style="fill: #0098FF; transform-origin: 274.875px 394.564px;" id="eluihzhcwbf7" class="animable"></path><g id="elvkd9g5majxr"><path d="M253.46,392.1s8.36-1.07,14.64-2.57,12.55,2.54,20.39,1.94a41.2,41.2,0,0,1,15.16,2l-14.11,1.17,13.59,2.53a74.27,74.27,0,0,1-17.25,2.62l-22,.39c-5.23.1-13.6-.67-13.6-.67L264.44,397l-18.3-2Z" style="fill: rgb(255, 255, 255); opacity: 0.5; transform-origin: 274.895px 394.691px;" class="animable" id="el4ogxv1lp2wg"></path></g><path d="M109.46,266.18c0,42.71-8.37,77.34-18.7,77.34s-18.7-34.63-18.7-77.34,8.37-91.93,18.7-91.93S109.46,223.46,109.46,266.18Z" style="fill: #0098FF; stroke: rgb(38, 50, 56); stroke-linecap: round; stroke-linejoin: round; transform-origin: 90.76px 258.885px;" id="elosqe8nkdpz" class="animable"></path><line x1="90.76" y1="174.25" x2="90.76" y2="343.52" style="fill: none; stroke: rgb(38, 50, 56); stroke-linecap: round; stroke-linejoin: round; transform-origin: 90.76px 258.885px;" id="elbtef81kk5wh" class="animable"></line><path d="M63.19,335.91s10.14-1.27,17.75-3.17,15.21,3.81,24.72,3.17a45.26,45.26,0,0,1,18.39,3.17l-17.12,1.27,16.48,3.8a79.62,79.62,0,0,1-20.92,3.17H75.87c-6.34,0-16.49-1.27-16.49-1.27l17.12-3.17-22.19-3.16Z" style="fill: #0098FF; transform-origin: 89.18px 339.835px;" id="elyptci6g3tqr" class="animable"></path><g id="el1hb1uo18lob"><path d="M63.19,336.44s10.14-1.47,17.75-3.53,15.21,3.49,24.72,2.67a44.7,44.7,0,0,1,18.39,2.79L106.93,340l16.48,3.46a80.39,80.39,0,0,1-20.92,3.6l-26.62.54c-6.34.13-16.49-.93-16.49-.93l17.12-3.52-22.19-2.71Z" style="fill: rgb(255, 255, 255); opacity: 0.5; transform-origin: 89.18px 340.03px;" class="animable" id="elzqy4vjrsmo"></path></g><path d="M68.31,335.46s13.57-3.1,18.22-3.1,12,3.49,16.67,3.88,8.53.77,8.53.77" style="fill: none; stroke: rgb(38, 50, 56); stroke-linecap: round; stroke-linejoin: round; transform-origin: 90.02px 334.685px;" id="eln5yw3t94usp" class="animable"></path><path d="M156.71,367.65s-3.1-1.94-12,0-14.34,2.71-15.9,2.32" style="fill: none; stroke: rgb(38, 50, 56); stroke-linecap: round; stroke-linejoin: round; transform-origin: 142.76px 368.428px;" id="elq6cpa2e3fqj" class="animable"></path><path d="M354.85,338.57s-15.51.77-19.77.77" style="fill: none; stroke: rgb(38, 50, 56); stroke-linecap: round; stroke-linejoin: round; transform-origin: 344.965px 338.955px;" id="elwr44qkje4y" class="animable"></path><path d="M304.32,354.79c4.42-.34,7.69-.71,8.27-.71" style="fill: none; stroke: rgb(38, 50, 56); stroke-linecap: round; stroke-linejoin: round; transform-origin: 308.455px 354.435px;" id="eltkat0o0k8r" class="animable"></path><path d="M258.69,354.08s10.47-2.72,20.94,0c4.28,1.1,10.3,1.31,16,1.16" style="fill: none; stroke: rgb(38, 50, 56); stroke-linecap: round; stroke-linejoin: round; transform-origin: 277.16px 354.077px;" id="elwi2hwadqea" class="animable"></path><path d="M297.85,328.1s-8.14-.78-12.41-.78-10.46.78-10.46.78" style="fill: none; stroke: rgb(38, 50, 56); stroke-linecap: round; stroke-linejoin: round; transform-origin: 286.415px 327.71px;" id="elxydvjrdn3wa" class="animable"></path><line x1="188.51" y1="320.73" x2="199.75" y2="320.73" style="fill: none; stroke: rgb(38, 50, 56); stroke-linecap: round; stroke-linejoin: round; transform-origin: 194.13px 320.73px;" id="elhsn6j22ez37" class="animable"></line><path d="M127,321.61c5,.2,12.86-.11,14.59-.11" style="fill: none; stroke: rgb(38, 50, 56); stroke-linecap: round; stroke-linejoin: round; transform-origin: 134.295px 321.589px;" id="elx8qgs2d4rab" class="animable"></path><path d="M114.84,321.5s2.85-.19,6.16-.17" style="fill: none; stroke: rgb(38, 50, 56); stroke-linecap: round; stroke-linejoin: round; transform-origin: 117.92px 321.414px;" id="elwciyb9cpw8" class="animable"></path><path d="M210.61,356s-9.69-1.16-17.45,0A87.46,87.46,0,0,1,178,357.18" style="fill: none; stroke: rgb(38, 50, 56); stroke-linecap: round; stroke-linejoin: round; transform-origin: 194.305px 356.334px;" id="elw4m0cbazron" class="animable"></path><path d="M230,349s4.78-2,14.6-1.4a140,140,0,0,0,16,.24" style="fill: none; stroke: rgb(38, 50, 56); stroke-linecap: round; stroke-linejoin: round; transform-origin: 245.3px 348.244px;" id="eldk9mp3l93kb" class="animable"></path><path d="M408.36,323.83s-7.37-.39-12.41-.39" style="fill: none; stroke: rgb(38, 50, 56); stroke-linecap: round; stroke-linejoin: round; transform-origin: 402.155px 323.635px;" id="elmio8eu8hypi" class="animable"></path><path d="M377,314.53s4.66.38,8.15.38" style="fill: none; stroke: rgb(38, 50, 56); stroke-linecap: round; stroke-linejoin: round; transform-origin: 381.075px 314.72px;" id="el4444h4v0mig" class="animable"></path><line x1="316.08" y1="311.81" x2="305.61" y2="311.81" style="fill: none; stroke: rgb(38, 50, 56); stroke-linecap: round; stroke-linejoin: round; transform-origin: 310.845px 311.81px;" id="elchcsm4ztm47" class="animable"></line><line x1="227.49" y1="309.82" x2="219.25" y2="309.82" style="fill: none; stroke: rgb(38, 50, 56); stroke-linecap: round; stroke-linejoin: round; transform-origin: 223.37px 309.82px;" id="els1fj7t5y4bh" class="animable"></line><path d="M222.5,372h13c4,0,12-.5,12-.5" style="fill: none; stroke: rgb(38, 50, 56); stroke-linecap: round; stroke-linejoin: round; transform-origin: 235px 371.75px;" id="el9jra93lfxbd" class="animable"></path><line x1="264" y1="382.5" x2="254" y2="382.5" style="fill: none; stroke: rgb(38, 50, 56); stroke-linecap: round; stroke-linejoin: round; transform-origin: 259px 382.5px;" id="el8kkoe98zo9l" class="animable"></line></g><g id="freepik--Umbrella--inject-61" class="animable" style="transform-origin: 225.4px 292.967px;"><path d="M214.29,320.61l-50,21.82S174.71,344,180.54,345s8.38,1.27,16.75,1.27,17,2.28,19,2.28,41.11-24.87,41.11-24.87a121.08,121.08,0,0,0-16.24-2c-7.36-.25-9.64-.5-14.72-.5S214.29,320.61,214.29,320.61Z" style="fill: rgb(255, 255, 255); stroke: rgb(38, 50, 56); stroke-linecap: round; stroke-linejoin: round; transform-origin: 210.845px 334.58px;" id="elo72q1gyqjmj" class="animable"></path><path d="M169.38,340.65s7.86,1.27,19,2,13.19-2.28,20,.26a45.62,45.62,0,0,0,12.44,2.79" style="fill: none; stroke: rgb(38, 50, 56); stroke-linecap: round; stroke-linejoin: round; transform-origin: 195.1px 343.175px;" id="ell4wh1cdr29c" class="animable"></path><path d="M186.91,256.09a24.52,24.52,0,0,1,4.66,4.79c1.41,2.26,1.12,2.12,3.66,2.82s9.59,2.12,12.55,2.82,11.43,3.39,11.85,3.11l1.41-1s1.83,1.55,3,1.55,12.13-.14,19,.14,8-.42,9-.7a4.67,4.67,0,0,0,1.84-1.27,5.88,5.88,0,0,0,3,.84c1.69,0,18.47-4.65,20.31-4.93s2.39-1.55,4.23-1.55,1.12-1.13,2.25-2.82a13.85,13.85,0,0,1,2.82-3v-1.55s-11-4.93-17.62-7.33-17.49-3-30.46-3.81-29.2,3.95-34.13,5.36-13.4,5.08-13.4,5.08Z" style="fill: #0098FF; stroke: rgb(38, 50, 56); stroke-linecap: round; stroke-linejoin: round; transform-origin: 236.7px 257.246px;" id="eltky1fxdapgd" class="animable"></path><path d="M194,263.28a16.16,16.16,0,0,1,.57-3.24c.42-1.27,8.88-5.78,8.88-5.78" style="fill: none; stroke: rgb(38, 50, 56); stroke-linecap: round; stroke-linejoin: round; transform-origin: 198.725px 258.77px;" id="ellkykvm8ytk8" class="animable"></path><path d="M221,268.64S227,251,228.65,249.46" style="fill: none; stroke: rgb(38, 50, 56); stroke-linecap: round; stroke-linejoin: round; transform-origin: 224.825px 259.05px;" id="elswb4cquf91c" class="animable"></path><line x1="253.9" y1="268.36" x2="247.13" y2="250.02" style="fill: none; stroke: rgb(38, 50, 56); stroke-linecap: round; stroke-linejoin: round; transform-origin: 250.515px 259.19px;" id="elbgc2q5s31ci" class="animable"></line><path d="M280.55,262.72a66.15,66.15,0,0,0-8.32-7.34,67.17,67.17,0,0,0-6.91-4.65" style="fill: none; stroke: rgb(38, 50, 56); stroke-linecap: round; stroke-linejoin: round; transform-origin: 272.935px 256.725px;" id="elp0ki0uwe6d" class="animable"></path><line x1="236.21" y1="247.92" x2="236.21" y2="322.38" style="fill: none; stroke: rgb(38, 50, 56); stroke-linecap: round; stroke-linejoin: round; stroke-width: 2px; transform-origin: 236.21px 285.15px;" id="el4nb7pqyjfhf" class="animable"></line><path d="M222.45,239.87a41.11,41.11,0,0,0-11.71,2.4c-7.19,2.4-17.9,9.59-19.46,10.72s-4.37,3.1-4.37,3.1,1.69,1.55,2.82,1.55S210,254,211.31,253.41s2.68-3.1,4.51-2.4,2.12,1,2.54,1,14.24-1.27,25.24-1,12.84.42,13.82,0,1.27-1.55,3-.56,2.68,1.69,4.09,1.69,5.36-.56,9.59,1,9.45,3.52,10.86,3.52a1.47,1.47,0,0,0,1.55-1.27,85.4,85.4,0,0,0-13.39-9.3c-7.05-3.81-18.62-6.21-21.16-6.63s-3.24-1.55-5.92-1.84-14-.28-17.35-.14A12,12,0,0,0,222.45,239.87Z" style="fill: rgb(255, 255, 255); stroke: rgb(38, 50, 56); stroke-linecap: round; stroke-linejoin: round; transform-origin: 236.71px 247.512px;" id="elmjqjdl17ktr" class="animable"></path><path d="M222.45,239.87s-5.22,6.06-7.47,10.86" style="fill: none; stroke: rgb(38, 50, 56); stroke-linecap: round; stroke-linejoin: round; transform-origin: 218.715px 245.3px;" id="elgv3r7ptkoyb" class="animable"></path><path d="M250.8,239.31s5.78,5.21,8.6,10.57" style="fill: none; stroke: rgb(38, 50, 56); stroke-linecap: round; stroke-linejoin: round; transform-origin: 255.1px 244.595px;" id="elfxj3vk4zj3s" class="animable"></path><path d="M251.32,322.43s-9.64,2.79-10.91,2.79-.76,7.86-1.52,9.64-2.79,11.42-1.78,12.18,5.59,1,5.59,1,9.89-1.77,11.67-5.83,0-9.64-1-12.44S251.32,322.43,251.32,322.43Z" style="fill: rgb(255, 255, 255); stroke: rgb(38, 50, 56); stroke-linecap: round; stroke-linejoin: round; transform-origin: 245.981px 335.235px;" id="ela3aqw7qm2b6" class="animable"></path><path d="M238.89,334.86c-.76,1.78-2.79,11.42-1.78,12.18s5.59,1,5.59,1,.76-.13,1.9-.42a11.67,11.67,0,0,0-.13-2.11c-.5-3.56-4.06-20.3-4.06-20.3l-.45.47C239.27,327.4,239.54,333.34,238.89,334.86Z" style="fill: none; stroke: rgb(38, 50, 56); stroke-linecap: round; stroke-linejoin: round; transform-origin: 240.719px 336.625px;" id="elxo698lxjxmc" class="animable"></path><path d="M243,325.22s1.78,12.43,6.09,12.68,2-10.4.51-14.71" style="fill: none; stroke: rgb(38, 50, 56); stroke-linecap: round; stroke-linejoin: round; transform-origin: 247.285px 330.547px;" id="el0fd4zrnvoxd" class="animable"></path><g id="elklnselztl5h"><ellipse cx="223.56" cy="329.68" rx="56.22" ry="10.92" style="opacity: 0.25; transform-origin: 223.56px 329.68px;" class="animable" id="el42s9po0wg0w"></ellipse></g></g><g id="freepik--character-2--inject-61" class="animable" style="transform-origin: 343.455px 273.666px;"><circle cx="269.67" cy="158.17" r="3.17" style="fill: rgb(255, 255, 255); stroke: rgb(38, 50, 56); stroke-linecap: round; stroke-linejoin: round; transform-origin: 269.67px 158.17px;" id="els4c3ttfv3ap" class="animable"></circle><path d="M345.79,239.69s-5.63,5.95-7.72,9.49-10.29,12.07-10.29,12.07a23.29,23.29,0,0,0-6.76,3.53c-3.06,2.42,0,5.31,2.41,5.31s6.12-5.31,9.33-7.08,13.83-9.65,14.64-10,2.09-2.41,2.73-7.4S348.2,238.73,345.79,239.69Z" style="fill: rgb(255, 255, 255); stroke: rgb(38, 50, 56); stroke-linecap: round; stroke-linejoin: round; transform-origin: 334.982px 254.769px;" id="el7ryjwgwmosa" class="animable"></path><path d="M319.33,264.47s-2.43,1.62-1.86,2.59,3.88,4.36,4.93,4.36,3.31-2.42,3.31-2.91-3.39-2.83-4-3.8S320.13,264.23,319.33,264.47Z" style="fill: rgb(255, 255, 255); stroke: rgb(38, 50, 56); stroke-linecap: round; stroke-linejoin: round; transform-origin: 321.547px 267.776px;" id="eln5ibfga6g7a" class="animable"></path><path d="M327.13,261.89s-5.47-1.29-6.43-.16-2.74,1.61-2.57,2.73,4.5,3.86,5.14,3.54-.8-2.89-.8-2.89,2.57,1.12,4.18-.33" style="fill: rgb(255, 255, 255); stroke: rgb(38, 50, 56); stroke-linecap: round; stroke-linejoin: round; transform-origin: 322.624px 264.646px;" id="eljwgf360pahb" class="animable"></path><path d="M371.78,170s-5.44-2.42-10.73-1.06-7.56,6.2-8.47,8-4.38,2.57-5,3.63,1.21,2.57,1.21,2.57-.91,6.2-1.06,9.07,0,2.87,1.51,3.18a24.36,24.36,0,0,0,3.78.3s1.36,7.25,1.21,9.52-6.8,3.78-8.92,8.47-2.87,11.79-2.57,17.69,2.27,11.18,2.88,15.27-1.52,11.33-2.57,13-7.56,7-13.61,19.65-9.68,27.21-10,32.05,1.06,14.21,1.06,14.21-1.51,10.43.15,19.05,5,20.26,5.29,22.53-2,3.78-4.08,6.19-4.23,4.69-3.78,5.3.91.9,4.54.3,5.29-5.44,7.25-6.5,2.87-1.82,2.87-4.39-1.36-3.17-2-9.52,2.42-15.27,1.66-22.07-2.11-13.16-2.11-13.16a142,142,0,0,0,7.86-18.74c2.87-9.07,8.16-19.05,8.61-19.35a17.59,17.59,0,0,0,1.82-3s3,17.54,4.08,25.85,2.72,16.18,4.23,18.6S369.81,354,372.69,360s3.78,10.13,3.78,10.89-5,7.25-7.41,10-2,3.33-1.06,3.63a15.52,15.52,0,0,0,7.26-.45c2.11-.91,7.1-6.35,8.31-8.77s-2.42-4.84-2.42-8-1.51-15.42-2.42-22.68-.6-10.73-3-15.12a45.85,45.85,0,0,0-5.44-7.71s1.21-12.09,1.66-21.92-1.36-34.62-1.36-36.28a68.09,68.09,0,0,1,2-12.4c1-3.48,5.44-10.28,7.4-16.63s3.93-20.26,3.18-25.55-3.18-7.71-7-7.86-7.4-.3-8.31-1.06-1.21-5-1.21-5l.3-1.06a17.5,17.5,0,0,0,8.47-4.08,13,13,0,0,0,3.93-11.79C378.58,174.23,373.14,170.3,371.78,170Z" style="fill: rgb(255, 255, 255); stroke: rgb(38, 50, 56); stroke-linecap: round; stroke-linejoin: round; transform-origin: 350.918px 276.641px;" id="elot4nfjy5l4l" class="animable"></path><path d="M356,178c-.31.49-.77.77-1,.61s-.19-.69.12-1.18.77-.76,1-.6S356.29,177.5,356,178Z" style="fill: rgb(38, 50, 56); transform-origin: 355.557px 177.72px;" id="elih2g3inen7o" class="animable"></path><path d="M356.24,174.84s1.93-1.31,2.48,1.17" style="fill: none; stroke: rgb(38, 50, 56); stroke-linecap: round; stroke-linejoin: round; transform-origin: 357.48px 175.252px;" id="elt2obcq9bgpn" class="animable"></path><path d="M351.05,184.84s.48,3,2.4,3,3.89-3.34,3.89-3.34A44.27,44.27,0,0,1,351.05,184.84Z" style="fill: rgb(38, 50, 56); transform-origin: 354.195px 186.17px;" id="elnzej8q046ai" class="animable"></path><path d="M351.42,238.46a6.7,6.7,0,0,0,5.64,5.64" style="fill: none; stroke: rgb(38, 50, 56); stroke-linecap: round; stroke-linejoin: round; transform-origin: 354.24px 241.28px;" id="elqml7d6twzk" class="animable"></path><path d="M357.06,209.46a7.74,7.74,0,0,0-2.25,3.77" style="fill: none; stroke: rgb(38, 50, 56); stroke-linecap: round; stroke-linejoin: round; transform-origin: 355.935px 211.345px;" id="eloxyoibdexi" class="animable"></path><line x1="358.95" y1="204.57" x2="362.71" y2="195.15" style="fill: none; stroke: rgb(38, 50, 56); stroke-linecap: round; stroke-linejoin: round; transform-origin: 360.83px 199.86px;" id="elvdd7lc78b1" class="animable"></line><path d="M348.78,240s-1.51,1.51,0,4.9.38,4.52,0,8.28-.75,5.65-.75,5.65" style="fill: rgb(255, 255, 255); stroke: rgb(38, 50, 56); stroke-linecap: round; stroke-linejoin: round; transform-origin: 348.787px 249.415px;" id="elxjo66s5w8kq" class="animable"></path><path d="M351.79,226a18.52,18.52,0,0,0,7.91,2.64" style="fill: rgb(255, 255, 255); stroke: rgb(38, 50, 56); stroke-linecap: round; stroke-linejoin: round; transform-origin: 355.745px 227.32px;" id="el9ijk705towh" class="animable"></path><path d="M349.53,226s-2.26,3-4.89,3" style="fill: rgb(255, 255, 255); stroke: rgb(38, 50, 56); stroke-linecap: round; stroke-linejoin: round; transform-origin: 347.085px 227.5px;" id="elzug7ybzsdij" class="animable"></path><path d="M379.34,178.16c-.76-3.93-6.2-7.86-7.56-8.16a20.31,20.31,0,0,0-5.23-1.35c1.88.94,3.93,2.4,3,4.07-1.66,2.87-5.74.45-6.05,3.17s3,3.63,2,5.45-3.17,2.11-1.81,3,3-.3,4.38-.3,2.42,3.47.15,5.29c-2,1.61-2.95,3.46-1.21,4.71v0a17.5,17.5,0,0,0,8.47-4.08A13,13,0,0,0,379.34,178.16Z" style="fill: rgb(38, 50, 56); stroke: rgb(38, 50, 56); stroke-linecap: round; stroke-linejoin: round; transform-origin: 371.404px 181.345px;" id="el0ipvb6p0st5" class="animable"></path><path d="M367.34,190.31s-3.86,1.13-4.34-1.12" style="fill: none; stroke: rgb(38, 50, 56); stroke-linecap: round; stroke-linejoin: round; transform-origin: 365.17px 189.892px;" id="eljjf3p9huljl" class="animable"></path><path d="M336.26,216.94h0a1.05,1.05,0,0,1-1.45-.33l-7.56-12L329,203.5l7.56,12A1.05,1.05,0,0,1,336.26,216.94Z" style="fill: rgb(38, 50, 56); stroke: rgb(38, 50, 56); stroke-linecap: round; stroke-linejoin: round; transform-origin: 331.988px 210.301px;" id="el83oypqcwp9x" class="animable"></path><path d="M329.86,204.09l-2.44,1.54c-4,2.52-9.06,1.51-11-2.2l-3.85-7.56c-1.69-3.31-.24-7.6,3.34-9.86l.89-.56c3.49-2.21,7.89-1.75,10.2,1.06l5.42,6.58C335.16,196.37,334,201.5,329.86,204.09Z" style="fill: rgb(38, 50, 56); stroke: rgb(38, 50, 56); stroke-linecap: round; stroke-linejoin: round; transform-origin: 322.887px 195.537px;" id="elqhypg4r6xhj" class="animable"></path><path d="M359.78,208.17s10.14-7.72,16.41-7.72,9.33,5.3,9.65,9.65.32,16.56,1,20.1-1,7.4-1.29,8.21-4.34,1.12-11.1-1.77-21.07-12.07-26.86-16.41-9.49-7.08-9.49-7.08a42.2,42.2,0,0,1-6.11,1.29c-1.45,0-4-3.22-4-3.22s-1.77.81-2.42-.32,2.26-4.18,4.51-5.47a7,7,0,0,1,7.08.48c1.76,1.29,11.9,7.4,17.37,9.33s17.69,6,17.69,6-1.13-3.06-1-4.35.16-3.38.16-3.38l4.15.89" style="fill: rgb(255, 255, 255); stroke: rgb(38, 50, 56); stroke-linecap: round; stroke-linejoin: round; transform-origin: 356.239px 219.71px;" id="el37avnljts7k" class="animable"></path><path d="M372.17,221.2s6.27,1.44,8.68,1.93" style="fill: none; stroke: rgb(38, 50, 56); stroke-linecap: round; stroke-linejoin: round; transform-origin: 376.51px 222.165px;" id="ellaj7wuq0tuq" class="animable"></path><path d="M343.28,258A49.12,49.12,0,0,0,358,260a76.3,76.3,0,0,0,13.35-.9,216.69,216.69,0,0,0,2.94,22.85c2,10.18,1.81,22.63,1.81,22.63s-6.79,3.39-13.35,3.85a83.76,83.76,0,0,1-12.9-.23l-2.26-17.88-7.25,17a49.88,49.88,0,0,1-10.86,0,27,27,0,0,1-10.41-3.85s3.4-16.29,9.05-25.57S341.69,260.44,343.28,258Z" style="fill: rgb(38, 50, 56); transform-origin: 347.587px 283.289px;" id="elyd559btnmvl" class="animable"></path><path d="M356,262.75c1.67-.95,3.17-1.89,4.5-2.79-.8,0-1.63,0-2.51,0a49.12,49.12,0,0,1-14.71-2c-.64,1-2.28,2.9-4.38,5.4C343,264.41,350.75,265.73,356,262.75Z" style="fill: #0098FF; transform-origin: 349.7px 261.269px;" id="el65bokmkujzn" class="animable"></path><path d="M348.82,300.11l1,8.08,1.84.16c4.12-2.4,10-6.05,15.07-8.85C372.79,296.19,356.36,298.8,348.82,300.11Z" style="fill: #0098FF; transform-origin: 358.432px 303.12px;" id="ela11d23xvxee" class="animable"></path><path d="M359.5,273c3.46.6,9-1.24,13.08-1.77-.31-2.42-.56-4.69-.75-6.6C368.11,266.2,354.52,272.13,359.5,273Z" style="fill: #0098FF; transform-origin: 365.498px 268.874px;" id="elk9ynlrntve" class="animable"></path><path d="M374.28,281.94c-.26-1.3-.5-2.64-.73-4C367.14,282.41,356,287.52,359,290c2.42,2,10.32,2.69,16.7,2.92A93.78,93.78,0,0,0,374.28,281.94Z" style="fill: #0098FF; transform-origin: 367.099px 285.43px;" id="elh0lll9zle58" class="animable"></path><path d="M326.09,281.66c6.85-1.65,14.59-.37,18.66-1.66,3.71-1.17-7.55-6-12.64-8.07-1.38,1.89-2.74,3.89-4,5.94C327.4,279,326.73,280.32,326.09,281.66Z" style="fill: #0098FF; transform-origin: 335.788px 276.795px;" id="elrxy92c4fib7" class="animable"></path><path d="M339.75,299.25c-1.57-2.35-2.05,3.54-2.2,8.26,1.7-.08,2.78-.22,2.78-.22l1.47-3.44A21.46,21.46,0,0,0,339.75,299.25Z" style="fill: #0098FF; transform-origin: 339.675px 303.113px;" id="elaitd48342y6" class="animable"></path><path d="M321.29,294.75c-1.44,4.93-2.23,8.69-2.23,8.69s.51.33,1.37.8c4.82-4.12,12.51-10.94,15.82-15.24C340.71,283.21,326.11,291.9,321.29,294.75Z" style="fill: #0098FF; transform-origin: 328.073px 295.646px;" id="elzucr8j8g6di" class="animable"></path><path d="M349.94,261.87s-4.05,6.76-8.66,12.91c0,0-2.69,3.08-.39,7.69" style="fill: none; stroke: rgb(255, 255, 255); stroke-linecap: round; stroke-linejoin: round; stroke-width: 0.75px; transform-origin: 344.95px 272.17px;" id="el62g1fkbuquf" class="animable"></path><path d="M350.5,262.48s-1.54,10.76-.38,15.38l1.15,4.61" style="fill: none; stroke: rgb(255, 255, 255); stroke-linecap: round; stroke-linejoin: round; stroke-width: 0.75px; transform-origin: 350.479px 272.475px;" id="eluovtgairbul" class="animable"></path><path d="M364.6,190.64s-3,2.63-5.65,2.63" style="fill: none; stroke: rgb(38, 50, 56); stroke-linecap: round; stroke-linejoin: round; transform-origin: 361.775px 191.955px;" id="elbnagtf1mo1k" class="animable"></path><path d="M293,377.94s10.14-1.27,17.75-3.17,15.22,3.8,24.73,3.17a45.19,45.19,0,0,1,18.38,3.17l-17.12,1.27,16.49,3.8a79.71,79.71,0,0,1-20.92,3.17H305.65c-6.34,0-16.48-1.27-16.48-1.27l17.11-3.17-22.18-3.17Z" style="fill: #0098FF; transform-origin: 318.98px 381.865px;" id="elubom0p747g" class="animable"></path><g id="el17woox8c52e"><path d="M293,378.47s10.14-1.47,17.75-3.53,15.22,3.49,24.73,2.66a44.73,44.73,0,0,1,18.38,2.8L336.71,382l16.49,3.46a80.5,80.5,0,0,1-20.92,3.6l-26.63.54c-6.34.13-16.48-.93-16.48-.93l17.11-3.52-22.18-2.71Z" style="fill: rgb(255, 255, 255); opacity: 0.5; transform-origin: 318.98px 382.045px;" class="animable" id="el6vcsqaywhwq"></path></g><path d="M345,379.54s12.57-1.38,22-3.46,18.85,4.16,30.63,3.46A62.5,62.5,0,0,1,420.4,383l-21.21,1.39,20.42,4.16A110.79,110.79,0,0,1,393.69,392h-33c-7.85,0-20.42-1.38-20.42-1.38l21.21-3.47L334,383.7Z" style="fill: #0098FF; transform-origin: 377.2px 383.827px;" id="el1jpkecuxzpz" class="animable"></path><g id="elvvd6b9zjjfq"><path d="M345,380.12s12.57-1.61,22-3.86,18.85,3.82,30.63,2.91a62,62,0,0,1,22.78,3.06L399.19,384l20.42,3.79a111.28,111.28,0,0,1-25.92,3.94l-33,.59c-7.85.14-20.42-1-20.42-1l21.21-3.85-27.49-3Z" style="fill: rgb(255, 255, 255); opacity: 0.5; transform-origin: 377.2px 384.044px;" class="animable" id="elnjdmy2mfzj"></path></g></g><g id="freepik--character-1--inject-61" class="animable" style="transform-origin: 158.735px 278.711px;"><path d="M122,294.57s2.2,1.45,1.73-.2a32.86,32.86,0,0,0-2.68-5.19S120.94,293.07,122,294.57Z" style="fill: rgb(255, 255, 255); stroke: rgb(38, 50, 56); stroke-linecap: round; stroke-linejoin: round; transform-origin: 122.421px 292.17px;" id="elhjpxiq8iogi" class="animable"></path><path d="M120.65,295.79s1.71,2,1.71.29a32.38,32.38,0,0,0-1.14-5.73S120.07,294.08,120.65,295.79Z" style="fill: rgb(255, 255, 255); stroke: rgb(38, 50, 56); stroke-linecap: round; stroke-linejoin: round; transform-origin: 121.423px 293.561px;" id="elvugyq5l13i" class="animable"></path><path d="M160.88,209.13s-3.38,2.75-3.13,5.37,2.41,3.12,4.35,2,5.33-3.23,7.75-2.9,5.49,2.9,6.61,4.35,14,7.27,14,7.27,2.9-7.27,4.52-10.66,5.81-12.1,6.45-15.33,1-6.94,3.07-8.07,4.52,1.62,3.87,5.17-3.23,5.32-3.55,9A108.76,108.76,0,0,1,200,225.69c-2.26,6.13-3.23,8.55-4.84,8.72A56.79,56.79,0,0,1,179.85,232c-5-1.78-6.91-2.53-6.91-2.53s4.17,5.43,3.52,8.82-3.06,8.07-3.06,8.88-.65,13.55,0,19,0,20.82-1.13,25.5-5.13,25.47-8.39,30.67C152.5,340.5,139.49,347.87,134,354s-9.67,11.78-9.67,11.78,1.62,5.33,2.1,6.46,3.55,3.39,2.58,3.87-4.68,0-5.81-.48-.8-2.1-2.74-4-4.68-2.42-4.68-4.35,8.72-9,13.72-18.24,9-16.79,13.39-19.85a82.91,82.91,0,0,0,9-7.75s-2.1-17.43-1.61-26.47c0,0-4.36-16-1-24.37s4.52-12.27,3.71-15.49-9.52-13.4-9.52-13.4-5.81,5.49-8.88,7.91a60.18,60.18,0,0,0-6.13,5.81A40.05,40.05,0,0,1,126.27,266c-1.94,5-3.55,9.85-4.36,12.75s-1.29,6-1.29,6a9.37,9.37,0,0,1,3.55,1.94,13.82,13.82,0,0,1,2.77,4.38s-.49,1.35-1.64.14c-.35-.37-1.61-1.62-1.61-1.62l-2.26-.16a75.47,75.47,0,0,1-1,7.59c-.48,1.77-1.29,2.42-1.29,1.61s-.16-3.23-.49-6-1.29-5.81-1.29-8.88.65-18.23,2.1-22.75,5-9.53,6.46-12,5-10.16,5-10.16,2.26-8.4,4.2-11.63,10.33-6.13,11-6.45,4.52-5.17,4.52-7.43v-9.19s1.29-2.91,4.68-.81a24,24,0,0,1,5.65,5Z" style="fill: rgb(255, 255, 255); stroke: rgb(38, 50, 56); stroke-linecap: round; stroke-linejoin: round; transform-origin: 162.128px 283.606px;" id="elfjqodklfhnb" class="animable"></path><line x1="171.3" y1="227.11" x2="173.59" y2="222.53" style="fill: none; stroke: rgb(38, 50, 56); stroke-linecap: round; stroke-linejoin: round; transform-origin: 172.445px 224.82px;" id="elrs8yy78b57r" class="animable"></line><path d="M149.35,270.56c-2.38,5.88-.94,15.49.12,20.71,6.14.25,15.58.32,23.08-1a138.67,138.67,0,0,0,1-21.15c-5.1-.75-14.82-2.43-21.76-5.12C151.21,265.84,150.39,268,149.35,270.56Z" style="fill: rgb(38, 50, 56); stroke: rgb(38, 50, 56); stroke-linecap: round; stroke-linejoin: round; transform-origin: 160.834px 277.708px;" id="elmpjtufnlb7p" class="animable"></path><path d="M210.24,198.61h0a1.05,1.05,0,0,1-1.45-.33l-7.56-12,1.78-1.12,7.56,12A1.05,1.05,0,0,1,210.24,198.61Z" style="fill: rgb(38, 50, 56); stroke: rgb(38, 50, 56); stroke-linecap: round; stroke-linejoin: round; transform-origin: 205.981px 191.966px;" id="eljoxsgh4bxwj" class="animable"></path><path d="M203.84,185.75l-2.45,1.54c-4,2.53-9,1.52-10.95-2.19l-3.85-7.56c-1.69-3.31-.24-7.61,3.34-9.87l.88-.55c3.5-2.21,7.9-1.75,10.21,1l5.42,6.58C209.14,178,207.93,183.17,203.84,185.75Z" style="fill: rgb(38, 50, 56); stroke: rgb(38, 50, 56); stroke-linecap: round; stroke-linejoin: round; transform-origin: 196.885px 177.203px;" id="el95kqfkjynvd" class="animable"></path><path d="M204,190.28s1.87-3.07,2.27-3.07a4.4,4.4,0,0,1,2.8,1.74,17,17,0,0,1,2,4.54c.27.67-1.87,3.47-2.8,3.47s-4.67-6-4.67-6S203.5,190.55,204,190.28Z" style="fill: rgb(255, 255, 255); stroke: rgb(38, 50, 56); stroke-linecap: round; stroke-linejoin: round; transform-origin: 207.343px 192.085px;" id="ellbwk81pkucm" class="animable"></path><path d="M164.25,223.25c.75,4.75.75,11.25-5.5,9-4.59-1.65-9.44-8.69-11.7-12.32a4.86,4.86,0,0,1-.93.92l-.6.24c1.78,3.32,5.37,10.48,6.48,16.41,1.18,6.3-2.28,9-3.81,9.9,2.22,2.89,4.48,6.1,4.87,7.67.68,2.72,0,5.91-2.29,11.88,1.14.54,2.46,1.14,4,1.8,6.26,2.74,15.28,3.49,18.9,3.68a60.48,60.48,0,0,0-.25-6.23c-.65-5.49,0-18.24,0-19s2.42-5.49,3.06-8.88-3.52-8.82-3.52-8.82h0a27.17,27.17,0,0,1-2.69-3.46,42.67,42.67,0,0,0-5.25-8c-1.3-1.42-2-1.78-2.43-1.78l-.47.27a4.52,4.52,0,0,1-.78.36A12.92,12.92,0,0,1,164.25,223.25Z" style="fill: rgb(255, 255, 255); stroke: rgb(38, 50, 56); stroke-linecap: round; stroke-linejoin: round; transform-origin: 161.033px 244.345px;" id="el54re25kgxq6" class="animable"></path><g id="elvy3xlzemoi"><path d="M154.49,247.49s6.4,4.15,11.3-1.5,9.41-9.42,7.9-6.78-3.39,7.15-7.9,10.92S155.62,251.64,154.49,247.49Z" style="opacity: 0.25; transform-origin: 164.238px 245.2px;" class="animable" id="elp45fg9prq4d"></path></g><path d="M159.05,186.52a27.1,27.1,0,0,1,4.35,3.83c1.39,1.74,3.65,6.6,4.17,6.6s3,1.22,2.13,2.61-1.55,1.35-1.55,1.35-.41,7.17-.76,8.56-3.47,1.05-5,1.05a21.34,21.34,0,0,1-7.13-2.26c-1.39-.87-1,.34-3.13-3.13s-.69-11.65.35-14.09A7.5,7.5,0,0,1,159.05,186.52Z" style="fill: rgb(255, 255, 255); stroke: rgb(38, 50, 56); stroke-linecap: round; stroke-linejoin: round; transform-origin: 160.457px 198.538px;" id="elin16bjddn5" class="animable"></path><path d="M163.92,193.13s-2.61-1.74-3.13,1" style="fill: none; stroke: rgb(38, 50, 56); stroke-linecap: round; stroke-linejoin: round; transform-origin: 162.355px 193.358px;" id="ell33gs5crdmh" class="animable"></path><path d="M164.43,196.67c.12.61,0,1.14-.24,1.19s-.56-.4-.68-1,0-1.13.24-1.18S164.31,196.07,164.43,196.67Z" style="fill: rgb(38, 50, 56); transform-origin: 163.97px 196.77px;" id="elq82bhz7q9d" class="animable"></path><path d="M165.13,203.75s-1.88.75-2.5-.75" style="fill: none; stroke: rgb(38, 50, 56); stroke-linecap: round; stroke-linejoin: round; transform-origin: 163.88px 203.469px;" id="elburkwv383d" class="animable"></path><path d="M150.77,267s-4.4,2.84-6.52,10.8c-2.55,9.58,2,15.25,6.75,20.25,5.77,6.07,16.59,20.44,20.3,23.51l4.68,3.87s-7.91,8.29-8.23,13.77a181.65,181.65,0,0,1-3.07,20.66c-1.13,5.49-3.87,13.08-4.19,14.53s1.29,2.1,2.74,2.26a21,21,0,0,1,8.07,2.9c3.55,2.1,5.49,1.29,6.46,0s-2.75-1.13-4.68-4.36a49.71,49.71,0,0,0-4.85-6.45s3.72-11.3,6.46-17.27,6.46-15.06,8.88-21.68,2.33-8.29,1.68-9.74-8.3-18.78-11.69-26-11.3-16.14-14.53-18.07" style="fill: rgb(38, 50, 56); stroke: rgb(38, 50, 56); stroke-linecap: round; stroke-linejoin: round; transform-origin: 164.58px 323.919px;" id="elhksvp6s0w9p" class="animable"></path><path d="M173.56,294a56.69,56.69,0,0,0-8.21-12.08,42,42,0,0,0-21.23,5.78c1.25,4.13,4.06,7.37,6.88,10.34,5.77,6.07,16.59,20.44,20.3,23.51l4.68,3.87s-7.91,8.29-8.23,13.77a181.65,181.65,0,0,1-3.07,20.66c-1.13,5.49-3.87,13.07-4.19,14.53s1.29,2.1,2.74,2.26a21,21,0,0,1,8.07,2.9c3.55,2.1,5.49,1.29,6.46,0s-2.75-1.13-4.68-4.36a49.71,49.71,0,0,0-4.85-6.45s3.72-11.3,6.46-17.27,6.46-15.06,8.88-21.68,2.33-8.29,1.68-9.74S177,301.22,173.56,294Z" style="fill: rgb(255, 255, 255); stroke: rgb(38, 50, 56); stroke-linecap: round; stroke-linejoin: round; transform-origin: 164.882px 331.374px;" id="eluq6u4zeu41p" class="animable"></path><path d="M202.44,198.83s-2.54-5.21-2.54-6,1.07-2.94,1.87-3.2,3.74.26,4.8.66,1.47.81.94,1.34-3.34.53-3.34.53,1.6,2.27.67,4.14" style="fill: rgb(255, 255, 255); stroke: rgb(38, 50, 56); stroke-linecap: round; stroke-linejoin: round; transform-origin: 203.821px 194.195px;" id="eliajv1vooi9" class="animable"></path><path d="M157,194.17c2.61-5.56,7-4.52,6.26-9s-5.21-9.39-8.17-7.48-.35,5.74-.35,5.74c-6.95-3.3-21.39.35-22.95,9.74s3.3,12.69.87,18.78-6.61,5-7.3,3.82-4.87-.52-5.22,5.22,6.43,8.52,6.43,8.52a10.77,10.77,0,0,0-.87,4.87c0,3.3,4.35,7.82,9.05,10.08s2.26,3.83,3.47,7,4.18,3.47,8.18,1,6.43-5.56,7.65-11.82-3.31-10.78-3.31-12.7,4.52.7,4.87,4.18,3,3.65,5-1.22-1.56-10.78-4-16.34a18.93,18.93,0,0,1-.69-1.93c2.65-4.54,3.48-9.24,1.36-13a7.7,7.7,0,0,1-1-3.69A17.62,17.62,0,0,1,157,194.17Z" style="fill: rgb(38, 50, 56); stroke: rgb(38, 50, 56); stroke-linecap: round; stroke-linejoin: round; transform-origin: 141.735px 215.685px;" id="elr7ib3g2v6bh" class="animable"></path><path d="M146.05,241.79a4.46,4.46,0,0,1-.11,4.2" style="fill: none; stroke: rgb(255, 255, 255); stroke-linecap: round; stroke-linejoin: round; stroke-width: 0.5px; transform-origin: 146.231px 243.89px;" id="el49m4m60zx4c" class="animable"></path><path d="M156.67,190.6s-8.12.87-9,7.25S158.12,210,151.74,217s-14.79,6.09-14.21,13.92c.31,4.23,3.68,6.26,6.2,8.33" style="fill: none; stroke: rgb(255, 255, 255); stroke-linecap: round; stroke-linejoin: round; stroke-width: 0.5px; transform-origin: 147.086px 214.925px;" id="el0la9on0gcgs" class="animable"></path><path d="M146.45,187.48c-3.9.38-8.4,2-9.5,7.18-2,9.57,10.44,29.87-8.12,34.22" style="fill: none; stroke: rgb(255, 255, 255); stroke-linecap: round; stroke-linejoin: round; stroke-width: 0.5px; transform-origin: 137.64px 208.18px;" id="elyx57kwt4rge" class="animable"></path><path d="M152.61,187.7a22.27,22.27,0,0,0-2.61-.29" style="fill: none; stroke: rgb(255, 255, 255); stroke-linecap: round; stroke-linejoin: round; stroke-width: 0.5px; transform-origin: 151.305px 187.555px;" id="eloawd4lmfou" class="animable"></path><path d="M148,212.64a5.39,5.39,0,0,1-1.18,2.32" style="fill: none; stroke: rgb(255, 255, 255); stroke-linecap: round; stroke-linejoin: round; stroke-width: 0.5px; transform-origin: 147.41px 213.8px;" id="el9a4a0a2qzw" class="animable"></path><path d="M146.23,190.6s-5.8.29-4.35,7c.84,3.89,3.86,7.38,5.37,10.66" style="fill: none; stroke: rgb(255, 255, 255); stroke-linecap: round; stroke-linejoin: round; stroke-width: 0.5px; transform-origin: 144.449px 199.43px;" id="eljdzwczy2z8b" class="animable"></path><path d="M149.75,378.91s12.56-1.39,22-3.47,18.84,4.16,30.62,3.47a62.5,62.5,0,0,1,22.78,3.47l-21.21,1.38,20.42,4.16a110.46,110.46,0,0,1-25.91,3.47h-33C157.6,391.39,145,390,145,390l21.21-3.46-27.49-3.47Z" style="fill: #0098FF; transform-origin: 181.935px 383.202px;" id="elj9o8euqukhs" class="animable"></path><g id="elmo0jbgwarmi"><path d="M149.75,379.49s12.56-1.61,22-3.86,18.84,3.82,30.62,2.91a62,62,0,0,1,22.78,3.06l-21.21,1.77,20.42,3.79a111.55,111.55,0,0,1-25.91,3.93l-33,.6c-7.85.14-20.42-1-20.42-1l21.21-3.85-27.49-3Z" style="fill: rgb(255, 255, 255); opacity: 0.5; transform-origin: 181.95px 383.414px;" class="animable" id="elcwlz71bvwya"></path></g><path d="M99.49,374.49s8.27-.69,14.47-1.72,12.4,2.06,20.15,1.72a53.14,53.14,0,0,1,15,1.71l-13.95.69,13.43,2.05a95.45,95.45,0,0,1-17.05,1.71h-21.7c-5.17,0-13.44-.68-13.44-.68l14-1.71-18.08-1.72Z" style="fill: #0098FF; transform-origin: 120.715px 376.604px;" id="eloonqa8k9hh" class="animable"></path><g id="el6miko6oihbo"><path d="M99.49,374.77s8.27-.79,14.47-1.9,12.4,1.88,20.15,1.44a53,53,0,0,1,15,1.51l-13.95.87,13.43,1.87a95.52,95.52,0,0,1-17.05,1.95l-21.7.29c-5.17.07-13.44-.5-13.44-.5l14-1.91-18.08-1.46Z" style="fill: rgb(255, 255, 255); opacity: 0.5; transform-origin: 120.715px 376.714px;" class="animable" id="el6wryta2o8l2"></path></g></g><defs>     <filter id="active" height="200%">         <feMorphology in="SourceAlpha" result="DILATED" operator="dilate" radius="2"></feMorphology>                <feFlood flood-color="#32DFEC" flood-opacity="1" result="PINK"></feFlood>        <feComposite in="PINK" in2="DILATED" operator="in" result="OUTLINE"></feComposite>        <feMerge>            <feMergeNode in="OUTLINE"></feMergeNode>            <feMergeNode in="SourceGraphic"></feMergeNode>        </feMerge>    </filter>    <filter id="hover" height="200%">        <feMorphology in="SourceAlpha" result="DILATED" operator="dilate" radius="2"></feMorphology>                <feFlood flood-color="#ff0000" flood-opacity="0.5" result="PINK"></feFlood>        <feComposite in="PINK" in2="DILATED" operator="in" result="OUTLINE"></feComposite>        <feMerge>            <feMergeNode in="OUTLINE"></feMergeNode>            <feMergeNode in="SourceGraphic"></feMergeNode>        </feMerge>            <feColorMatrix type="matrix" values="0   0   0   0   0                0   1   0   0   0                0   0   0   0   0                0   0   0   1   0 "></feColorMatrix>    </filter></defs></svg>