<svg xmlns="http://www.w3.org/2000/svg" width="810" viewBox="0 0 810 810" height="810" version="1.0"><path fill="#00ADEF" d="M 709.945312 639.636719 C 707.851562 638.695312 705.703125 637.898438 703.476562 637.265625 C 702.914062 637.121094 702.367188 636.9375 701.792969 636.820312 C 701.230469 636.695312 700.660156 636.558594 700.09375 636.429688 C 698.925781 636.234375 697.78125 635.992188 696.582031 635.878906 C 695.992188 635.808594 695.40625 635.699219 694.792969 635.671875 C 694.191406 635.621094 693.589844 635.574219 692.976562 635.523438 C 692.375 635.480469 691.753906 635.480469 691.140625 635.449219 C 690.527344 635.4375 689.914062 635.390625 689.285156 635.410156 C 688.039062 635.429688 686.785156 635.417969 685.519531 635.503906 C 684.890625 635.535156 684.253906 635.554688 683.632812 635.605469 C 683.003906 635.660156 682.378906 635.722656 681.75 635.777344 C 679.257812 636.070312 676.769531 636.429688 674.359375 637.070312 C 671.945312 637.691406 669.59375 638.492188 667.296875 639.523438 C 664.996094 640.542969 662.746094 641.785156 660.464844 643.214844 C 658.179688 644.65625 655.847656 646.28125 653.347656 647.980469 C 650.835938 649.671875 648.136719 651.421875 645.203125 653.007812 C 642.253906 654.601562 639.074219 656.003906 635.765625 657.070312 C 632.453125 658.152344 629.03125 658.90625 625.601562 659.394531 C 622.15625 659.910156 618.734375 660.085938 615.28125 660.117188 C 611.851562 660.160156 608.300781 659.949219 604.722656 659.445312 C 601.136719 658.9375 597.492188 658.101562 593.941406 656.875 C 590.402344 655.652344 586.953125 654.058594 583.800781 652.289062 C 580.632812 650.527344 577.714844 648.640625 574.960938 646.949219 C 572.21875 645.257812 569.613281 643.742188 566.980469 642.546875 C 564.355469 641.359375 561.691406 640.445312 558.890625 639.804688 C 556.101562 639.164062 553.164062 638.792969 550.121094 638.644531 C 547.097656 638.519531 543.910156 638.550781 540.875 638.851562 C 537.839844 639.144531 534.894531 639.65625 532.085938 640.472656 C 529.265625 641.269531 526.601562 642.410156 523.910156 643.839844 C 521.214844 645.257812 518.476562 647.078125 515.472656 649.066406 C 512.445312 651.074219 509.152344 653.269531 505.394531 655.210938 C 503.550781 656.207031 501.574219 657.089844 499.574219 657.910156 C 497.542969 658.683594 495.480469 659.414062 493.371094 659.960938 C 489.171875 661.105469 484.890625 661.75 480.691406 662.042969 C 476.488281 662.324219 472.378906 662.332031 468.101562 661.980469 C 463.832031 661.621094 459.4375 660.851562 455.128906 659.550781 C 454.59375 659.375 454.0625 659.21875 453.527344 659.046875 L 451.933594 658.484375 L 451.132812 658.191406 L 450.355469 657.878906 L 448.792969 657.238281 C 446.757812 656.320312 444.746094 655.347656 442.882812 654.289062 C 440.992188 653.25 439.195312 652.152344 437.523438 651.082031 C 435.910156 650.0625 434.304688 649.03125 432.691406 648 C 429.601562 646.035156 426.777344 644.421875 423.890625 643.175781 C 421.003906 641.941406 418.046875 641.046875 414.886719 640.484375 C 411.738281 639.921875 408.402344 639.679688 404.953125 639.667969 C 401.503906 639.679688 398.167969 639.921875 395.007812 640.484375 C 391.847656 641.046875 388.898438 641.941406 386.011719 643.167969 C 383.125 644.421875 380.300781 646.035156 377.214844 648 C 375.601562 649.03125 373.992188 650.050781 372.382812 651.082031 C 370.703125 652.152344 368.90625 653.242188 367.023438 654.289062 L 365.601562 655.070312 L 364.128906 655.816406 C 363.640625 656.070312 363.140625 656.304688 362.632812 656.539062 L 361.109375 657.226562 L 359.546875 657.867188 L 358.769531 658.191406 L 357.972656 658.472656 L 356.378906 659.046875 C 355.84375 659.21875 355.304688 659.375 354.769531 659.542969 C 350.460938 660.851562 346.070312 661.621094 341.808594 661.980469 C 337.523438 662.332031 333.414062 662.324219 329.210938 662.042969 C 325.007812 661.757812 320.730469 661.105469 316.527344 659.960938 C 314.421875 659.414062 312.359375 658.695312 310.328125 657.917969 C 308.328125 657.089844 306.347656 656.214844 304.503906 655.222656 C 300.753906 653.269531 297.453125 651.074219 294.425781 649.066406 C 291.425781 647.078125 288.683594 645.257812 285.996094 643.847656 C 283.304688 642.410156 280.632812 641.269531 277.816406 640.472656 C 275.003906 639.667969 272.0625 639.144531 269.023438 638.851562 C 265.996094 638.550781 262.804688 638.519531 259.777344 638.644531 C 256.738281 638.792969 253.804688 639.152344 251.003906 639.792969 C 248.207031 640.433594 245.542969 641.351562 242.917969 642.546875 C 240.289062 643.730469 237.683594 645.257812 234.933594 646.949219 C 232.191406 648.632812 229.265625 650.519531 226.105469 652.289062 C 222.945312 654.058594 219.5 655.652344 215.957031 656.875 C 212.410156 658.101562 208.765625 658.9375 205.183594 659.445312 C 201.597656 659.949219 198.054688 660.160156 194.617188 660.117188 C 191.167969 660.085938 187.746094 659.910156 184.300781 659.394531 C 180.875 658.90625 177.449219 658.152344 174.140625 657.070312 C 170.828125 656.003906 167.644531 654.601562 164.707031 653.019531 C 161.761719 651.433594 159.066406 649.683594 156.554688 647.980469 C 154.050781 646.28125 151.722656 644.65625 149.4375 643.226562 C 147.152344 641.785156 144.902344 640.542969 142.601562 639.523438 C 140.304688 638.492188 137.953125 637.691406 135.535156 637.070312 C 133.132812 636.429688 130.644531 636.070312 128.148438 635.777344 C 127.523438 635.722656 126.898438 635.660156 126.269531 635.605469 C 125.648438 635.554688 125.007812 635.535156 124.382812 635.503906 C 123.121094 635.417969 121.867188 635.429688 120.617188 635.410156 C 119.988281 635.390625 119.375 635.4375 118.761719 635.449219 C 118.144531 635.480469 117.527344 635.480469 116.917969 635.523438 C 115.707031 635.621094 114.496094 635.699219 113.320312 635.878906 C 112.121094 635.992188 110.972656 636.234375 109.808594 636.429688 C 109.238281 636.558594 108.671875 636.695312 108.105469 636.820312 C 107.535156 636.9375 106.984375 637.121094 106.425781 637.265625 C 104.199219 637.898438 102.054688 638.683594 99.960938 639.636719 C 97.867188 640.582031 95.828125 641.6875 93.792969 642.867188 C 90.027344 645.066406 86.226562 647.523438 82.199219 649.613281 C 92.707031 663.449219 104.085938 676.59375 116.25 688.960938 C 116.875 688.886719 117.496094 688.84375 118.125 688.777344 C 118.835938 688.71875 119.554688 688.640625 120.269531 688.625 C 121.699219 688.554688 123.136719 688.46875 124.582031 688.488281 C 125.308594 688.488281 126.035156 688.46875 126.765625 688.488281 C 127.5 688.511719 128.234375 688.542969 128.972656 688.574219 C 131.929688 688.75 134.949219 689.03125 137.992188 689.660156 C 141.027344 690.265625 144.085938 691.140625 147.058594 692.277344 C 150.035156 693.425781 152.90625 694.832031 155.617188 696.359375 C 158.332031 697.878906 160.890625 699.5 163.355469 700.996094 C 165.820312 702.503906 168.210938 703.886719 170.628906 705.042969 C 173.042969 706.199219 175.488281 707.140625 178.039062 707.84375 C 180.585938 708.542969 183.230469 709.011719 185.972656 709.285156 C 188.699219 709.574219 191.5625 709.589844 194.429688 709.503906 C 197.308594 709.429688 200.128906 709.117188 202.878906 708.621094 C 205.625 708.125 208.273438 707.394531 210.84375 706.394531 C 213.410156 705.394531 215.894531 704.136719 218.433594 702.59375 C 220.984375 701.046875 223.585938 699.25 226.464844 697.324219 C 229.347656 695.417969 232.484375 693.417969 235.96875 691.683594 C 239.445312 689.953125 243.207031 688.511719 247.058594 687.515625 C 250.910156 686.5 254.832031 685.898438 258.703125 685.597656 L 260.160156 685.488281 C 260.644531 685.453125 261.125 685.453125 261.605469 685.433594 C 262.570312 685.402344 263.535156 685.34375 264.5 685.351562 C 265.46875 685.363281 266.4375 685.375 267.410156 685.382812 C 268.386719 685.414062 269.367188 685.472656 270.351562 685.519531 C 274.296875 685.792969 278.347656 686.375 282.371094 687.433594 C 286.402344 688.46875 290.371094 690.03125 294.035156 691.878906 C 297.722656 693.726562 301.027344 695.835938 304.09375 697.773438 C 307.136719 699.695312 309.941406 701.457031 312.707031 702.816406 C 314.089844 703.527344 315.476562 704.09375 316.871094 704.644531 C 318.277344 705.140625 319.691406 705.617188 321.160156 705.96875 C 324.082031 706.707031 327.160156 707.132812 330.371094 707.296875 C 333.582031 707.464844 336.949219 707.414062 340.128906 707.117188 C 343.324219 706.804688 346.371094 706.210938 349.28125 705.285156 C 349.644531 705.171875 350.011719 705.066406 350.371094 704.933594 L 351.445312 704.535156 L 351.984375 704.34375 L 352.515625 704.109375 L 353.582031 703.664062 C 354.992188 703.003906 356.398438 702.328125 357.835938 701.496094 C 359.269531 700.679688 360.722656 699.78125 362.257812 698.789062 C 363.863281 697.75 365.464844 696.703125 367.070312 695.660156 C 370.433594 693.492188 374.273438 691.21875 378.460938 689.378906 C 382.65625 687.5625 387.15625 686.191406 391.640625 685.382812 C 396.128906 684.578125 400.589844 684.265625 404.953125 684.253906 C 409.316406 684.265625 413.769531 684.578125 418.261719 685.382812 C 422.746094 686.191406 427.246094 687.5625 431.445312 689.390625 C 435.628906 691.21875 439.46875 693.492188 442.832031 695.660156 C 444.433594 696.710938 446.042969 697.75 447.644531 698.789062 C 449.179688 699.78125 450.628906 700.679688 452.070312 701.496094 C 453.496094 702.328125 454.90625 703.011719 456.316406 703.671875 L 457.921875 704.34375 L 458.457031 704.535156 L 459.523438 704.933594 C 459.894531 705.066406 460.253906 705.171875 460.613281 705.285156 C 463.53125 706.210938 466.574219 706.804688 469.773438 707.117188 C 472.953125 707.414062 476.324219 707.464844 479.535156 707.296875 C 482.746094 707.132812 485.824219 706.699219 488.742188 705.96875 C 490.210938 705.617188 491.621094 705.140625 493.03125 704.644531 C 494.429688 704.09375 495.808594 703.515625 497.191406 702.808594 C 499.960938 701.445312 502.761719 699.6875 505.804688 697.761719 C 508.878906 695.828125 512.175781 693.714844 515.867188 691.878906 C 519.535156 690.019531 523.5 688.457031 527.527344 687.425781 C 531.558594 686.375 535.605469 685.792969 539.554688 685.519531 C 543.511719 685.246094 547.3125 685.316406 551.203125 685.609375 C 555.070312 685.898438 558.988281 686.5 562.847656 687.515625 C 566.699219 688.523438 570.460938 689.964844 573.933594 691.695312 C 577.421875 693.417969 580.554688 695.417969 583.4375 697.332031 C 586.316406 699.25 588.914062 701.058594 591.460938 702.59375 C 594.007812 704.136719 596.488281 705.394531 599.054688 706.394531 C 601.625 707.394531 604.277344 708.125 607.027344 708.621094 C 609.769531 709.117188 612.589844 709.429688 615.480469 709.503906 C 618.335938 709.589844 621.207031 709.574219 623.925781 709.285156 C 626.667969 709.011719 629.316406 708.542969 631.859375 707.84375 C 634.40625 707.140625 636.855469 706.199219 639.269531 705.042969 C 641.6875 703.886719 644.082031 702.503906 646.542969 700.996094 C 649.011719 699.492188 651.566406 697.878906 654.289062 696.359375 C 656.992188 694.832031 659.871094 693.417969 662.847656 692.277344 C 665.8125 691.128906 668.875 690.265625 671.910156 689.660156 C 674.949219 689.03125 677.972656 688.75 680.933594 688.574219 C 681.667969 688.542969 682.398438 688.511719 683.140625 688.488281 C 683.867188 688.46875 684.597656 688.488281 685.316406 688.488281 C 686.765625 688.46875 688.203125 688.554688 689.632812 688.625 C 690.34375 688.640625 691.0625 688.71875 691.78125 688.777344 C 692.402344 688.84375 693.023438 688.886719 693.648438 688.960938 C 705.820312 676.59375 717.195312 663.449219 727.695312 649.613281 C 723.671875 647.523438 719.878906 645.066406 716.109375 642.878906 C 714.078125 641.6875 712.035156 640.582031 709.945312 639.636719"/><path fill="#00ADEF" d="M 558.890625 766.980469 C 556.101562 766.335938 553.164062 765.976562 550.121094 765.832031 C 547.097656 765.695312 543.910156 765.722656 540.875 766.03125 C 537.839844 766.316406 534.894531 766.84375 532.085938 767.660156 C 529.265625 768.457031 526.601562 769.582031 523.910156 771.023438 C 521.214844 772.441406 518.476562 774.257812 515.472656 776.242188 C 512.445312 778.246094 509.152344 780.453125 505.394531 782.398438 C 503.550781 783.390625 501.574219 784.273438 499.574219 785.089844 C 497.542969 785.871094 495.480469 786.585938 493.371094 787.140625 C 489.171875 788.28125 484.890625 788.929688 480.691406 789.222656 C 476.488281 789.503906 472.378906 789.503906 468.101562 789.15625 C 463.832031 788.804688 459.4375 788.039062 455.128906 786.722656 C 454.59375 786.558594 454.0625 786.402344 453.527344 786.226562 L 451.933594 785.652344 L 451.132812 785.371094 L 450.355469 785.054688 L 448.792969 784.410156 C 446.757812 783.507812 444.746094 782.535156 442.882812 781.476562 C 440.992188 780.421875 439.195312 779.332031 437.523438 778.265625 C 435.910156 777.234375 434.304688 776.214844 432.691406 775.183594 C 429.601562 773.21875 426.777344 771.605469 423.890625 770.351562 C 421.003906 769.125 418.046875 768.230469 414.886719 767.660156 C 411.738281 767.105469 408.402344 766.859375 404.953125 766.847656 C 401.503906 766.859375 398.167969 767.105469 395.007812 767.660156 C 391.847656 768.230469 388.898438 769.125 386.011719 770.351562 C 383.125 771.605469 380.300781 773.210938 377.214844 775.175781 C 375.601562 776.203125 373.992188 777.234375 372.382812 778.265625 C 370.703125 779.332031 368.90625 780.421875 367.023438 781.476562 L 365.601562 782.25 L 364.128906 783 C 363.640625 783.253906 363.140625 783.484375 362.632812 783.71875 L 361.109375 784.410156 L 359.546875 785.054688 L 358.769531 785.371094 L 357.972656 785.652344 L 356.378906 786.21875 C 355.84375 786.402344 355.304688 786.558594 354.769531 786.722656 C 350.460938 788.027344 346.070312 788.804688 341.808594 789.15625 C 337.523438 789.503906 333.414062 789.503906 329.210938 789.222656 C 325.007812 788.929688 320.730469 788.28125 316.527344 787.140625 C 314.421875 786.597656 312.359375 785.871094 310.328125 785.089844 C 308.328125 784.273438 306.347656 783.390625 304.503906 782.398438 C 300.753906 780.453125 297.453125 778.253906 294.425781 776.253906 C 291.425781 774.257812 288.683594 772.441406 285.996094 771.023438 C 283.304688 769.589844 280.632812 768.457031 277.816406 767.660156 C 275.003906 766.84375 272.0625 766.316406 269.023438 766.03125 C 265.996094 765.722656 262.804688 765.695312 259.777344 765.832031 C 256.738281 765.976562 253.804688 766.335938 251.003906 766.980469 C 248.207031 767.621094 245.542969 768.53125 242.917969 769.726562 C 240.738281 770.710938 238.578125 771.925781 236.34375 773.269531 C 287.679688 796.808594 344.78125 809.941406 404.953125 809.941406 C 465.113281 809.941406 522.214844 796.816406 573.554688 773.277344 C 571.316406 771.933594 569.160156 770.710938 566.980469 769.726562 C 564.355469 768.53125 561.691406 767.621094 558.890625 766.980469"/><path fill="#00ADEF" d="M 674.359375 700.660156 C 671.945312 701.28125 669.59375 702.085938 667.296875 703.109375 C 664.996094 704.128906 662.746094 705.371094 660.464844 706.8125 C 658.179688 708.242188 655.847656 709.863281 653.347656 711.566406 C 650.835938 713.261719 648.136719 715.019531 645.203125 716.601562 C 642.253906 718.191406 639.074219 719.585938 635.765625 720.660156 C 632.453125 721.738281 629.03125 722.496094 625.601562 722.992188 C 622.15625 723.496094 618.734375 723.671875 615.28125 723.710938 C 611.851562 723.757812 608.300781 723.539062 604.722656 723.039062 C 601.136719 722.535156 597.492188 721.6875 593.941406 720.464844 C 590.402344 719.25 586.953125 717.644531 583.800781 715.875 C 580.632812 714.113281 577.714844 712.226562 574.960938 710.539062 C 572.21875 708.855469 569.613281 707.328125 566.980469 706.144531 C 564.355469 704.945312 561.691406 704.03125 558.890625 703.390625 C 556.101562 702.746094 553.164062 702.378906 550.121094 702.242188 C 547.097656 702.105469 543.910156 702.136719 540.875 702.4375 C 537.839844 702.730469 534.894531 703.253906 532.085938 704.0625 C 529.265625 704.867188 526.601562 705.996094 523.910156 707.433594 C 521.214844 708.84375 518.476562 710.664062 515.472656 712.65625 C 512.445312 714.65625 509.152344 716.855469 505.394531 718.808594 C 503.550781 719.800781 501.574219 720.679688 499.574219 721.503906 C 497.542969 722.28125 495.480469 723.003906 493.371094 723.558594 C 489.171875 724.691406 484.890625 725.34375 480.691406 725.632812 C 476.488281 725.90625 472.378906 725.917969 468.101562 725.570312 C 463.832031 725.207031 459.4375 724.441406 455.128906 723.140625 C 454.59375 722.972656 454.0625 722.808594 453.527344 722.628906 L 451.933594 722.066406 L 451.132812 721.777344 L 450.355469 721.464844 L 448.792969 720.820312 C 446.757812 719.910156 444.746094 718.945312 442.882812 717.886719 C 440.992188 716.839844 439.195312 715.75 437.523438 714.675781 C 435.910156 713.648438 434.304688 712.617188 432.691406 711.585938 C 429.601562 709.621094 426.777344 708.019531 423.890625 706.765625 C 421.003906 705.539062 418.046875 704.636719 414.886719 704.070312 C 411.738281 703.515625 408.402344 703.265625 404.953125 703.253906 C 401.503906 703.265625 398.167969 703.515625 395.007812 704.070312 C 391.847656 704.636719 388.898438 705.539062 386.011719 706.765625 C 383.125 708.007812 380.300781 709.621094 377.214844 711.585938 C 375.601562 712.617188 373.992188 713.648438 372.382812 714.667969 C 370.703125 715.738281 368.90625 716.839844 367.023438 717.878906 L 365.601562 718.652344 L 364.128906 719.40625 C 363.640625 719.65625 363.140625 719.898438 362.632812 720.125 L 361.109375 720.820312 L 359.546875 721.464844 L 358.769531 721.777344 L 357.972656 722.066406 L 356.378906 722.628906 C 355.84375 722.808594 355.304688 722.972656 354.769531 723.140625 C 350.460938 724.441406 346.070312 725.207031 341.808594 725.570312 C 337.523438 725.917969 333.414062 725.90625 329.210938 725.632812 C 325.007812 725.34375 320.730469 724.691406 316.527344 723.558594 C 314.421875 723.003906 312.359375 722.28125 310.328125 721.503906 C 308.328125 720.683594 306.347656 719.800781 304.503906 718.808594 C 300.753906 716.863281 297.453125 714.65625 294.425781 712.664062 C 291.425781 710.675781 288.683594 708.855469 285.996094 707.433594 C 283.304688 705.996094 280.632812 704.867188 277.816406 704.0625 C 275.003906 703.253906 272.0625 702.730469 269.023438 702.4375 C 265.996094 702.136719 262.804688 702.105469 259.777344 702.242188 C 256.738281 702.378906 253.804688 702.746094 251.003906 703.390625 C 248.207031 704.03125 245.542969 704.945312 242.917969 706.144531 C 240.289062 707.328125 237.683594 708.84375 234.933594 710.539062 C 232.191406 712.226562 229.265625 714.113281 226.105469 715.875 C 222.945312 717.644531 219.5 719.238281 215.957031 720.464844 C 212.410156 721.6875 208.765625 722.535156 205.183594 723.027344 C 201.597656 723.539062 198.054688 723.757812 194.617188 723.710938 C 191.167969 723.671875 187.746094 723.496094 184.300781 722.992188 C 180.875 722.496094 177.449219 721.746094 174.140625 720.667969 C 170.828125 719.585938 167.644531 718.191406 164.707031 716.601562 C 161.761719 715.019531 159.066406 713.269531 156.554688 711.566406 C 154.050781 709.875 151.722656 708.242188 149.4375 706.8125 C 147.152344 705.371094 144.902344 704.128906 142.601562 703.109375 C 140.304688 702.085938 137.953125 701.28125 135.535156 700.660156 C 133.132812 700.023438 130.644531 699.65625 128.148438 699.375 C 127.675781 699.324219 127.203125 699.289062 126.734375 699.238281 C 154.390625 725.390625 185.722656 747.6875 219.886719 765.277344 C 221.976562 763.945312 224.128906 762.472656 226.464844 760.921875 C 229.347656 759.003906 232.484375 757 235.96875 755.28125 C 239.445312 753.550781 243.207031 752.109375 247.058594 751.097656 C 250.910156 750.089844 254.832031 749.484375 258.703125 749.191406 L 260.160156 749.078125 C 260.644531 749.046875 261.125 749.035156 261.605469 749.019531 C 262.570312 749 263.535156 748.941406 264.5 748.941406 C 265.46875 748.949219 266.4375 748.960938 267.410156 748.96875 C 268.386719 749.011719 269.367188 749.066406 270.351562 749.117188 C 274.296875 749.378906 278.347656 749.972656 282.371094 751.023438 C 286.402344 752.050781 290.371094 753.617188 294.035156 755.46875 C 297.722656 757.3125 301.027344 759.421875 304.09375 761.359375 C 307.136719 763.28125 309.941406 765.042969 312.707031 766.40625 C 314.089844 767.113281 315.476562 767.683594 316.871094 768.230469 C 318.277344 768.738281 319.691406 769.210938 321.160156 769.554688 C 324.082031 770.292969 327.160156 770.71875 330.371094 770.894531 C 333.582031 771.0625 336.949219 771.011719 340.128906 770.699219 C 343.324219 770.390625 346.371094 769.796875 349.28125 768.875 C 349.644531 768.757812 350.011719 768.648438 350.371094 768.523438 L 351.445312 768.125 L 351.984375 767.929688 L 352.515625 767.707031 L 353.582031 767.257812 C 354.992188 766.597656 356.398438 765.917969 357.835938 765.078125 C 359.269531 764.261719 360.722656 763.371094 362.257812 762.378906 C 363.863281 761.339844 365.464844 760.296875 367.070312 759.246094 C 370.433594 757.082031 374.273438 754.800781 378.460938 752.976562 C 382.65625 751.148438 387.15625 749.777344 391.640625 748.96875 C 396.128906 748.175781 400.589844 747.851562 404.953125 747.84375 C 409.316406 747.851562 413.769531 748.175781 418.261719 748.96875 C 422.746094 749.789062 427.246094 751.148438 431.445312 752.976562 C 435.628906 754.800781 439.46875 757.082031 442.832031 759.257812 C 444.433594 760.296875 446.042969 761.339844 447.644531 762.378906 C 449.179688 763.371094 450.628906 764.261719 452.070312 765.078125 C 453.496094 765.925781 454.90625 766.597656 456.316406 767.257812 L 457.386719 767.707031 L 457.921875 767.929688 L 458.457031 768.125 L 459.523438 768.53125 C 459.894531 768.648438 460.253906 768.757812 460.613281 768.875 C 463.53125 769.796875 466.574219 770.390625 469.773438 770.699219 C 472.953125 771.011719 476.324219 771.0625 479.535156 770.894531 C 482.746094 770.71875 485.824219 770.292969 488.742188 769.554688 C 490.210938 769.203125 491.621094 768.726562 493.03125 768.230469 C 494.429688 767.675781 495.808594 767.113281 497.191406 766.40625 C 499.960938 765.042969 502.761719 763.28125 505.804688 761.359375 C 508.878906 759.421875 512.175781 757.300781 515.867188 755.46875 C 519.535156 753.617188 523.5 752.050781 527.527344 751.023438 C 531.558594 749.964844 535.605469 749.378906 539.554688 749.117188 C 543.511719 748.84375 547.3125 748.910156 551.203125 749.191406 C 555.070312 749.484375 558.988281 750.089844 562.847656 751.097656 C 566.699219 752.109375 570.460938 753.550781 573.933594 755.28125 C 577.421875 757.011719 580.554688 759.015625 583.4375 760.921875 C 585.773438 762.472656 587.925781 763.953125 590.011719 765.277344 C 624.179688 747.695312 655.515625 725.390625 683.164062 699.238281 C 682.703125 699.289062 682.222656 699.324219 681.75 699.375 C 679.257812 699.65625 676.769531 700.023438 674.359375 700.660156"/><path fill="#00ADEF" d="M 742.203125 591.246094 C 739.9375 590.761719 737.636719 590.15625 735.355469 589.363281 C 733.09375 588.566406 730.847656 587.601562 728.648438 586.511719 C 724.265625 584.324219 720.171875 581.644531 716.109375 579.28125 C 714.078125 578.101562 712.035156 576.996094 709.945312 576.050781 C 707.851562 575.097656 705.703125 574.300781 703.476562 573.671875 C 702.914062 573.523438 702.367188 573.347656 701.792969 573.222656 C 701.230469 573.097656 700.660156 572.96875 700.09375 572.84375 C 698.925781 572.636719 697.78125 572.40625 696.582031 572.28125 C 695.992188 572.21875 695.40625 572.113281 694.792969 572.074219 C 694.191406 572.039062 693.589844 571.988281 692.976562 571.9375 C 692.375 571.882812 691.753906 571.890625 691.140625 571.863281 C 690.527344 571.839844 689.914062 571.800781 689.285156 571.820312 C 688.039062 571.839844 686.785156 571.820312 685.519531 571.910156 C 684.890625 571.949219 684.253906 571.957031 683.632812 572.015625 C 683.003906 572.074219 682.378906 572.132812 681.75 572.195312 C 679.257812 572.476562 676.769531 572.84375 674.359375 573.484375 C 671.945312 574.097656 669.59375 574.90625 667.296875 575.925781 C 664.996094 576.945312 662.746094 578.191406 660.464844 579.628906 C 658.179688 581.058594 655.847656 582.691406 653.347656 584.386719 C 650.835938 586.085938 648.136719 587.835938 645.203125 589.421875 C 642.253906 591.003906 639.074219 592.40625 635.765625 593.484375 C 632.453125 594.5625 629.03125 595.324219 625.601562 595.808594 C 622.15625 596.3125 618.734375 596.488281 615.28125 596.527344 C 611.851562 596.578125 608.300781 596.351562 604.722656 595.859375 C 601.136719 595.351562 597.492188 594.515625 593.941406 593.292969 C 590.402344 592.066406 586.953125 590.46875 583.800781 588.699219 C 580.632812 586.933594 577.714844 585.054688 574.960938 583.363281 C 572.21875 581.671875 569.613281 580.148438 566.980469 578.957031 C 564.355469 577.761719 561.691406 576.851562 558.890625 576.207031 C 556.101562 575.566406 553.164062 575.207031 550.121094 575.0625 C 547.097656 574.925781 543.910156 574.953125 540.875 575.253906 C 537.839844 575.546875 534.894531 576.070312 532.085938 576.886719 C 529.265625 577.683594 526.601562 578.8125 523.910156 580.253906 C 521.214844 581.671875 518.476562 583.488281 515.472656 585.476562 C 512.445312 587.476562 509.152344 589.683594 505.394531 591.628906 C 503.550781 592.617188 501.574219 593.503906 499.574219 594.320312 C 497.542969 595.097656 495.480469 595.816406 493.371094 596.371094 C 489.171875 597.511719 484.890625 598.160156 480.691406 598.453125 C 476.488281 598.734375 472.378906 598.734375 468.101562 598.382812 C 463.832031 598.035156 459.4375 597.269531 455.128906 595.953125 C 454.59375 595.789062 454.0625 595.632812 453.527344 595.460938 L 451.933594 594.886719 L 451.132812 594.601562 L 450.355469 594.28125 L 448.792969 593.640625 C 446.757812 592.738281 444.746094 591.765625 442.882812 590.703125 C 440.992188 589.652344 439.195312 588.566406 437.523438 587.496094 C 435.910156 586.464844 434.304688 585.445312 432.691406 584.410156 C 429.601562 582.449219 426.777344 580.832031 423.890625 579.582031 C 421.003906 578.359375 418.046875 577.460938 414.886719 576.886719 C 411.738281 576.332031 408.402344 576.089844 404.953125 576.082031 C 401.503906 576.089844 398.167969 576.332031 395.007812 576.886719 C 391.847656 577.460938 388.898438 578.359375 386.011719 579.582031 C 383.125 580.832031 380.300781 582.441406 377.214844 584.402344 C 375.601562 585.433594 373.992188 586.464844 372.382812 587.496094 C 370.703125 588.566406 368.90625 589.652344 367.023438 590.703125 L 365.601562 591.484375 L 364.128906 592.230469 C 363.640625 592.480469 363.140625 592.71875 362.632812 592.949219 L 361.109375 593.640625 L 359.546875 594.28125 L 358.769531 594.601562 L 357.972656 594.886719 L 356.378906 595.449219 C 355.84375 595.632812 355.304688 595.789062 354.769531 595.953125 C 350.460938 597.257812 346.070312 598.035156 341.808594 598.382812 C 337.523438 598.734375 333.414062 598.734375 329.210938 598.453125 C 325.007812 598.160156 320.730469 597.511719 316.527344 596.371094 C 314.421875 595.828125 312.359375 595.097656 310.328125 594.320312 C 308.328125 593.503906 306.347656 592.617188 304.503906 591.628906 C 300.753906 589.683594 297.453125 587.484375 294.425781 585.484375 C 291.425781 583.488281 288.683594 581.671875 285.996094 580.253906 C 283.304688 578.820312 280.632812 577.683594 277.816406 576.886719 C 275.003906 576.070312 272.0625 575.546875 269.023438 575.265625 C 265.996094 574.953125 262.804688 574.925781 259.777344 575.0625 C 256.738281 575.207031 253.804688 575.566406 251.003906 576.207031 C 248.207031 576.851562 245.542969 577.761719 242.917969 578.957031 C 240.289062 580.148438 237.683594 581.671875 234.933594 583.351562 C 232.191406 585.046875 229.265625 586.933594 226.105469 588.691406 C 222.945312 590.460938 219.5 592.066406 215.957031 593.28125 C 212.410156 594.507812 208.765625 595.351562 205.183594 595.859375 C 201.597656 596.351562 198.054688 596.578125 194.617188 596.527344 C 191.167969 596.488281 187.746094 596.3125 184.300781 595.808594 C 180.875 595.324219 177.449219 594.5625 174.140625 593.484375 C 170.828125 592.414062 167.644531 591.015625 164.707031 589.421875 C 161.761719 587.835938 159.066406 586.085938 156.554688 584.394531 C 154.050781 582.691406 151.722656 581.070312 149.4375 579.628906 C 147.152344 578.203125 144.902344 576.957031 142.601562 575.933594 C 140.304688 574.90625 137.953125 574.097656 135.535156 573.484375 C 133.132812 572.84375 130.644531 572.476562 128.148438 572.195312 C 127.523438 572.132812 126.898438 572.074219 126.269531 572.015625 C 125.648438 571.957031 125.007812 571.949219 124.382812 571.910156 C 123.121094 571.820312 121.867188 571.839844 120.617188 571.820312 C 119.988281 571.800781 119.375 571.839844 118.761719 571.863281 C 118.144531 571.890625 117.527344 571.882812 116.917969 571.9375 C 115.707031 572.039062 114.496094 572.105469 113.320312 572.28125 C 112.121094 572.40625 110.972656 572.636719 109.808594 572.84375 C 109.238281 572.96875 108.671875 573.097656 108.105469 573.222656 C 107.535156 573.347656 106.984375 573.523438 106.425781 573.671875 C 104.199219 574.300781 102.054688 575.097656 99.960938 576.039062 C 97.867188 576.988281 95.828125 578.101562 93.792969 579.28125 C 89.730469 581.644531 85.636719 584.324219 81.25 586.511719 C 79.058594 587.601562 76.804688 588.554688 74.539062 589.363281 C 72.261719 590.15625 69.96875 590.761719 67.703125 591.242188 C 63.148438 592.164062 58.707031 592.457031 54.480469 592.414062 C 51.429688 592.386719 48.453125 592.191406 45.570312 591.820312 C 54.953125 609.828125 65.640625 627.046875 77.519531 643.332031 C 77.542969 643.324219 77.570312 643.300781 77.59375 643.292969 C 81.34375 641.125 85.046875 638.363281 89.238281 635.566406 C 91.335938 634.175781 93.554688 632.773438 95.949219 631.519531 C 98.339844 630.257812 100.882812 629.136719 103.535156 628.214844 C 104.203125 627.988281 104.863281 627.738281 105.542969 627.550781 C 106.222656 627.359375 106.90625 627.164062 107.589844 626.972656 C 108.960938 626.640625 110.347656 626.28125 111.75 626.042969 C 113.15625 625.761719 114.566406 625.589844 115.988281 625.402344 C 116.699219 625.308594 117.410156 625.257812 118.125 625.191406 C 118.835938 625.132812 119.554688 625.046875 120.269531 625.027344 C 121.699219 624.964844 123.136719 624.878906 124.582031 624.890625 C 125.308594 624.898438 126.035156 624.871094 126.765625 624.898438 C 127.5 624.929688 128.234375 624.945312 128.972656 624.976562 C 131.929688 625.152344 134.949219 625.445312 137.992188 626.066406 C 141.027344 626.679688 144.085938 627.542969 147.058594 628.691406 C 150.035156 629.828125 152.90625 631.246094 155.617188 632.773438 C 158.332031 634.289062 160.890625 635.902344 163.355469 637.410156 C 165.820312 638.917969 168.210938 640.296875 170.628906 641.457031 C 173.042969 642.613281 175.488281 643.546875 178.039062 644.25 C 180.585938 644.957031 183.230469 645.421875 185.972656 645.6875 C 188.699219 645.976562 191.5625 646 194.429688 645.90625 C 197.308594 645.84375 200.128906 645.53125 202.878906 645.035156 C 205.625 644.527344 208.273438 643.800781 210.84375 642.796875 C 213.410156 641.796875 215.894531 640.554688 218.433594 639.007812 C 220.984375 637.460938 223.585938 635.660156 226.464844 633.734375 C 229.347656 631.832031 232.484375 629.820312 235.96875 628.097656 C 239.445312 626.367188 243.207031 624.929688 247.058594 623.925781 C 250.910156 622.90625 254.832031 622.3125 258.703125 622.011719 L 260.160156 621.90625 C 260.644531 621.867188 261.125 621.867188 261.605469 621.835938 C 262.570312 621.816406 263.535156 621.757812 264.5 621.769531 C 265.46875 621.78125 266.4375 621.78125 267.410156 621.789062 C 268.386719 621.824219 269.367188 621.886719 270.351562 621.933594 C 274.296875 622.199219 278.347656 622.789062 282.371094 623.839844 C 286.402344 624.871094 290.371094 626.4375 294.035156 628.292969 C 297.722656 630.132812 301.027344 632.238281 304.09375 634.175781 C 307.136719 636.097656 309.941406 637.859375 312.707031 639.21875 C 314.089844 639.929688 315.476562 640.503906 316.871094 641.058594 C 318.277344 641.554688 319.691406 642.03125 321.160156 642.378906 C 324.082031 643.109375 327.160156 643.539062 330.371094 643.710938 C 333.582031 643.875 336.949219 643.832031 340.128906 643.519531 C 343.324219 643.207031 346.371094 642.613281 349.28125 641.699219 C 349.644531 641.582031 350.011719 641.46875 350.371094 641.351562 L 351.445312 640.953125 L 351.984375 640.746094 L 353.582031 640.074219 C 354.992188 639.414062 356.398438 638.746094 357.835938 637.898438 C 359.269531 637.09375 360.722656 636.183594 362.257812 635.195312 C 363.863281 634.152344 365.464844 633.117188 367.070312 632.074219 C 370.433594 629.894531 374.273438 627.621094 378.460938 625.792969 C 382.65625 623.96875 387.15625 622.605469 391.640625 621.796875 C 396.128906 620.988281 400.589844 620.679688 404.953125 620.671875 C 409.316406 620.679688 413.769531 620.988281 418.261719 621.796875 C 422.746094 622.605469 427.246094 623.976562 431.445312 625.792969 C 435.628906 627.632812 439.46875 629.90625 442.832031 632.074219 C 444.433594 633.117188 446.042969 634.164062 447.644531 635.207031 C 449.179688 636.195312 450.628906 637.09375 452.070312 637.910156 C 453.496094 638.746094 454.90625 639.414062 456.316406 640.074219 L 457.386719 640.523438 L 457.921875 640.757812 L 458.457031 640.953125 L 459.523438 641.351562 C 459.894531 641.476562 460.253906 641.582031 460.613281 641.699219 C 463.53125 642.613281 466.574219 643.207031 469.773438 643.519531 C 472.953125 643.832031 476.324219 643.875 479.535156 643.710938 C 482.746094 643.539062 485.824219 643.109375 488.742188 642.378906 C 490.210938 642.03125 491.621094 641.554688 493.03125 641.046875 C 494.429688 640.503906 495.808594 639.929688 497.191406 639.21875 C 499.960938 637.859375 502.761719 636.097656 505.804688 634.175781 C 508.878906 632.238281 512.175781 630.132812 515.867188 628.28125 C 519.535156 626.4375 523.5 624.871094 527.527344 623.839844 C 531.558594 622.789062 535.605469 622.199219 539.554688 621.933594 C 543.511719 621.660156 547.3125 621.730469 551.203125 622.011719 C 555.070312 622.3125 558.988281 622.90625 562.847656 623.925781 C 566.699219 624.929688 570.460938 626.367188 573.933594 628.097656 C 577.421875 629.828125 580.554688 631.832031 583.4375 633.734375 C 586.316406 635.660156 588.914062 637.460938 591.460938 639.007812 C 594.007812 640.554688 596.488281 641.804688 599.054688 642.808594 C 601.625 643.800781 604.277344 644.527344 607.027344 645.035156 C 609.769531 645.53125 612.589844 645.84375 615.480469 645.90625 C 618.335938 646 621.207031 645.976562 623.925781 645.6875 C 626.667969 645.421875 629.316406 644.957031 631.859375 644.25 C 634.40625 643.546875 636.855469 642.613281 639.269531 641.445312 C 641.6875 640.289062 644.082031 638.910156 646.542969 637.410156 C 649.011719 635.902344 651.566406 634.289062 654.289062 632.761719 C 656.992188 631.246094 659.871094 629.828125 662.847656 628.691406 C 665.8125 627.542969 668.875 626.679688 671.910156 626.066406 C 674.949219 625.433594 677.972656 625.152344 680.933594 624.976562 C 681.667969 624.945312 682.398438 624.929688 683.140625 624.898438 C 683.867188 624.871094 684.597656 624.890625 685.316406 624.890625 C 686.765625 624.878906 688.203125 624.964844 689.632812 625.027344 C 690.34375 625.046875 691.0625 625.132812 691.78125 625.191406 C 692.488281 625.257812 693.199219 625.308594 693.910156 625.402344 C 695.34375 625.589844 696.75 625.761719 698.148438 626.042969 C 699.550781 626.28125 700.941406 626.640625 702.3125 626.972656 C 703.003906 627.164062 703.683594 627.359375 704.363281 627.550781 C 705.035156 627.738281 705.695312 627.988281 706.367188 628.214844 C 709.019531 629.136719 711.566406 630.257812 713.949219 631.519531 C 716.339844 632.773438 718.566406 634.175781 720.660156 635.566406 C 724.859375 638.363281 728.550781 641.125 732.308594 643.292969 C 732.332031 643.300781 732.351562 643.324219 732.382812 643.332031 C 744.261719 627.046875 754.949219 609.828125 764.332031 591.820312 C 761.445312 592.191406 758.472656 592.386719 755.417969 592.414062 C 751.199219 592.457031 746.753906 592.164062 742.203125 591.246094"/><path fill="#00ADEF" d="M 778.546875 524.53125 C 775.183594 525.929688 771.5 527.019531 767.609375 527.730469 C 763.71875 528.441406 759.644531 528.78125 755.417969 528.828125 C 751.199219 528.859375 746.753906 528.566406 742.203125 527.652344 C 739.9375 527.175781 737.636719 526.574219 735.355469 525.773438 C 733.09375 524.96875 730.847656 524.015625 728.648438 522.925781 C 724.265625 520.738281 720.171875 518.054688 716.109375 515.691406 C 714.078125 514.519531 712.035156 513.398438 709.945312 512.457031 C 707.851562 511.515625 705.703125 510.714844 703.476562 510.082031 C 702.914062 509.9375 702.367188 509.761719 701.792969 509.636719 C 701.230469 509.507812 700.660156 509.382812 700.09375 509.257812 C 698.925781 509.054688 697.78125 508.816406 696.582031 508.691406 C 695.992188 508.625 695.40625 508.515625 694.792969 508.488281 C 694.191406 508.441406 693.589844 508.390625 692.976562 508.34375 C 692.375 508.292969 691.753906 508.304688 691.140625 508.273438 C 690.527344 508.253906 689.914062 508.21875 689.285156 508.238281 C 688.039062 508.242188 686.785156 508.238281 685.519531 508.324219 C 684.890625 508.363281 684.253906 508.375 683.632812 508.429688 C 683.003906 508.488281 682.378906 508.546875 681.75 508.605469 C 679.257812 508.886719 676.769531 509.257812 674.359375 509.886719 C 671.945312 510.511719 669.59375 511.316406 667.296875 512.339844 C 664.996094 513.359375 662.746094 514.605469 660.464844 516.046875 C 658.179688 517.472656 655.847656 519.09375 653.347656 520.796875 C 650.835938 522.488281 648.136719 524.25 645.203125 525.832031 C 642.253906 527.417969 639.074219 528.816406 635.765625 529.886719 C 632.453125 530.96875 629.03125 531.726562 625.601562 532.21875 C 622.15625 532.730469 618.734375 532.902344 615.28125 532.941406 C 611.851562 532.992188 608.300781 532.765625 604.722656 532.269531 C 601.136719 531.765625 597.492188 530.917969 593.941406 529.695312 C 590.402344 528.480469 586.953125 526.871094 583.800781 525.101562 C 580.632812 523.34375 577.714844 521.457031 574.960938 519.765625 C 572.21875 518.085938 569.613281 516.558594 566.980469 515.371094 C 564.355469 514.175781 561.691406 513.261719 558.890625 512.621094 C 556.101562 511.976562 553.164062 511.609375 550.121094 511.472656 C 547.097656 511.339844 543.910156 511.367188 540.875 511.667969 C 537.839844 511.957031 534.894531 512.484375 532.085938 513.292969 C 529.265625 514.101562 526.601562 515.226562 523.910156 516.664062 C 521.214844 518.078125 518.476562 519.890625 515.472656 521.886719 C 512.445312 523.886719 509.152344 526.085938 505.394531 528.042969 C 503.550781 529.035156 501.574219 529.90625 499.574219 530.734375 C 497.542969 531.515625 495.480469 532.230469 493.371094 532.785156 C 489.171875 533.921875 484.890625 534.574219 480.691406 534.867188 C 476.488281 535.136719 472.378906 535.148438 468.101562 534.800781 C 463.832031 534.4375 459.4375 533.671875 455.128906 532.367188 C 454.59375 532.203125 454.0625 532.039062 453.527344 531.863281 L 451.933594 531.296875 L 451.132812 531.003906 L 450.355469 530.695312 L 448.792969 530.054688 C 446.757812 529.140625 444.746094 528.175781 442.882812 527.117188 C 440.992188 526.066406 439.195312 524.976562 437.523438 523.910156 C 435.910156 522.878906 434.304688 521.847656 432.691406 520.820312 C 429.601562 518.851562 426.777344 517.25 423.890625 515.996094 C 421.003906 514.769531 418.046875 513.863281 414.886719 513.304688 C 411.738281 512.75 408.402344 512.492188 404.953125 512.484375 C 401.503906 512.492188 398.167969 512.75 395.007812 513.304688 C 391.847656 513.863281 388.898438 514.769531 386.011719 515.996094 C 383.125 517.238281 380.300781 518.851562 377.214844 520.820312 C 375.601562 521.847656 373.992188 522.878906 372.382812 523.898438 C 370.703125 524.96875 368.90625 526.066406 367.023438 527.109375 L 365.601562 527.886719 L 364.128906 528.636719 C 363.640625 528.886719 363.140625 529.128906 362.632812 529.351562 L 361.109375 530.054688 L 359.546875 530.695312 L 358.769531 531.003906 L 357.972656 531.296875 L 356.378906 531.863281 C 355.84375 532.039062 355.304688 532.203125 354.769531 532.367188 C 350.460938 533.671875 346.070312 534.4375 341.808594 534.800781 C 337.523438 535.148438 333.414062 535.136719 329.210938 534.867188 C 325.007812 534.574219 320.730469 533.921875 316.527344 532.785156 C 314.421875 532.230469 312.359375 531.515625 310.328125 530.734375 C 308.328125 529.917969 306.347656 529.035156 304.503906 528.042969 C 300.753906 526.097656 297.453125 523.886719 294.425781 521.898438 C 291.425781 519.902344 288.683594 518.085938 285.996094 516.664062 C 283.304688 515.226562 280.632812 514.101562 277.816406 513.292969 C 275.003906 512.484375 272.0625 511.957031 269.023438 511.667969 C 265.996094 511.367188 262.804688 511.339844 259.777344 511.472656 C 256.738281 511.609375 253.804688 511.976562 251.003906 512.621094 C 248.207031 513.261719 245.542969 514.175781 242.917969 515.371094 C 240.289062 516.558594 237.683594 518.078125 234.933594 519.765625 C 232.191406 521.457031 229.265625 523.34375 226.105469 525.101562 C 222.945312 526.871094 219.5 528.46875 215.957031 529.695312 C 212.410156 530.917969 208.765625 531.765625 205.183594 532.261719 C 201.597656 532.765625 198.054688 532.992188 194.617188 532.941406 C 191.167969 532.902344 187.746094 532.730469 184.300781 532.21875 C 180.875 531.726562 177.449219 530.976562 174.140625 529.898438 C 170.828125 528.816406 167.644531 527.417969 164.707031 525.832031 C 161.761719 524.25 159.066406 522.496094 156.554688 520.796875 C 154.050781 519.105469 151.722656 517.472656 149.4375 516.046875 C 147.152344 514.605469 144.902344 513.359375 142.601562 512.339844 C 140.304688 511.316406 137.953125 510.511719 135.535156 509.886719 C 133.132812 509.257812 130.644531 508.886719 128.148438 508.605469 C 127.523438 508.546875 126.898438 508.488281 126.269531 508.429688 C 125.648438 508.375 125.007812 508.363281 124.382812 508.324219 C 123.121094 508.238281 121.867188 508.242188 120.617188 508.238281 C 119.988281 508.21875 119.375 508.253906 118.761719 508.273438 C 118.144531 508.292969 117.527344 508.292969 116.917969 508.34375 C 115.707031 508.441406 114.496094 508.515625 113.320312 508.691406 C 112.121094 508.816406 110.972656 509.054688 109.808594 509.246094 C 109.238281 509.382812 108.671875 509.507812 108.105469 509.636719 C 107.535156 509.75 106.984375 509.9375 106.425781 510.082031 C 104.199219 510.714844 102.054688 511.515625 99.960938 512.457031 C 97.867188 513.398438 95.828125 514.507812 93.792969 515.691406 C 89.730469 518.054688 85.636719 520.738281 81.25 522.914062 C 79.058594 524.015625 76.804688 524.96875 74.539062 525.773438 C 72.261719 526.574219 69.96875 527.175781 67.703125 527.652344 C 63.148438 528.566406 58.707031 528.859375 54.480469 528.828125 C 50.257812 528.78125 46.183594 528.441406 42.289062 527.730469 C 38.402344 527.019531 34.722656 525.929688 31.359375 524.53125 C 27.984375 523.152344 24.96875 521.417969 22.234375 519.679688 C 19.621094 518.007812 17.265625 516.308594 15.023438 514.730469 C 22.007812 539.582031 31.300781 563.46875 42.664062 586.136719 C 42.792969 586.15625 42.921875 586.175781 43.050781 586.179688 C 46.640625 586.582031 50.433594 586.628906 54.335938 586.40625 C 58.234375 586.175781 62.210938 585.628906 66.125 584.566406 C 68.074219 584.015625 70.019531 583.363281 71.929688 582.558594 C 73.835938 581.730469 75.71875 580.789062 77.59375 579.699219 C 81.34375 577.53125 85.046875 574.769531 89.238281 571.96875 C 91.335938 570.578125 93.554688 569.191406 95.949219 567.925781 C 98.339844 566.667969 100.882812 565.542969 103.535156 564.617188 C 104.203125 564.402344 104.863281 564.148438 105.542969 563.957031 C 106.222656 563.761719 106.90625 563.570312 107.589844 563.375 C 108.960938 563.050781 110.347656 562.691406 111.75 562.460938 C 113.15625 562.179688 114.566406 562.003906 115.988281 561.804688 C 116.699219 561.710938 117.410156 561.671875 118.125 561.605469 C 118.835938 561.542969 119.554688 561.457031 120.269531 561.4375 C 121.699219 561.371094 123.136719 561.28125 124.582031 561.300781 C 125.308594 561.300781 126.035156 561.28125 126.765625 561.300781 C 127.5 561.332031 128.234375 561.363281 128.972656 561.386719 C 131.929688 561.5625 134.949219 561.847656 137.992188 562.480469 C 141.027344 563.089844 144.085938 563.957031 147.058594 565.101562 C 150.035156 566.242188 152.90625 567.664062 155.617188 569.179688 C 158.332031 570.703125 160.890625 572.320312 163.355469 573.828125 C 165.820312 575.324219 168.210938 576.703125 170.628906 577.859375 C 173.042969 579.027344 175.488281 579.960938 178.039062 580.660156 C 180.585938 581.363281 183.230469 581.828125 185.972656 582.097656 C 188.699219 582.390625 191.5625 582.410156 194.429688 582.324219 C 197.308594 582.246094 200.128906 581.933594 202.878906 581.449219 C 205.625 580.945312 208.273438 580.214844 210.84375 579.210938 C 213.410156 578.210938 215.894531 576.957031 218.433594 575.410156 C 220.984375 573.871094 223.585938 572.066406 226.464844 570.148438 C 229.347656 568.234375 232.484375 566.230469 235.96875 564.511719 C 239.445312 562.777344 243.207031 561.34375 247.058594 560.328125 C 250.910156 559.320312 254.832031 558.714844 258.703125 558.425781 L 260.160156 558.308594 C 260.644531 558.269531 261.125 558.269531 261.605469 558.25 C 262.570312 558.230469 263.535156 558.171875 264.5 558.171875 C 265.46875 558.183594 266.4375 558.191406 267.410156 558.203125 C 268.386719 558.238281 269.367188 558.296875 270.351562 558.347656 C 274.296875 558.609375 278.347656 559.199219 282.371094 560.253906 C 286.402344 561.28125 290.371094 562.847656 294.035156 564.695312 C 297.722656 566.542969 301.027344 568.652344 304.09375 570.585938 C 307.136719 572.511719 309.941406 574.269531 312.707031 575.632812 C 314.089844 576.34375 315.476562 576.917969 316.871094 577.460938 C 318.277344 577.964844 319.691406 578.445312 321.160156 578.78125 C 324.082031 579.523438 327.160156 579.949219 330.371094 580.128906 C 333.582031 580.28125 336.949219 580.242188 340.128906 579.929688 C 343.324219 579.617188 346.371094 579.027344 349.28125 578.101562 C 349.644531 577.984375 350.011719 577.878906 350.371094 577.753906 L 351.445312 577.355469 L 351.984375 577.160156 L 353.582031 576.488281 C 354.992188 575.828125 356.398438 575.148438 357.835938 574.3125 C 359.269531 573.496094 360.722656 572.601562 362.257812 571.609375 C 363.863281 570.566406 365.464844 569.527344 367.070312 568.480469 C 370.433594 566.3125 374.273438 564.035156 378.460938 562.207031 C 382.65625 560.378906 387.15625 559.007812 391.640625 558.203125 C 396.128906 557.40625 400.589844 557.082031 404.953125 557.074219 C 409.316406 557.082031 413.769531 557.40625 418.261719 558.203125 C 422.746094 559.019531 427.246094 560.378906 431.445312 562.207031 C 435.628906 564.035156 439.46875 566.3125 442.832031 568.488281 C 444.433594 569.527344 446.042969 570.566406 447.644531 571.609375 C 449.179688 572.601562 450.628906 573.496094 452.070312 574.3125 C 453.496094 575.15625 454.90625 575.828125 456.316406 576.488281 L 457.921875 577.160156 L 458.457031 577.355469 L 459.523438 577.761719 C 459.894531 577.878906 460.253906 577.984375 460.613281 578.101562 C 463.53125 579.027344 466.574219 579.617188 469.773438 579.929688 C 472.953125 580.242188 476.324219 580.28125 479.535156 580.128906 C 482.746094 579.949219 485.824219 579.523438 488.742188 578.78125 C 490.210938 578.433594 491.621094 577.957031 493.03125 577.460938 C 494.429688 576.90625 495.808594 576.34375 497.191406 575.632812 C 499.960938 574.269531 502.761719 572.511719 505.804688 570.585938 C 508.878906 568.652344 512.175781 566.535156 515.867188 564.695312 C 519.535156 562.847656 523.5 561.28125 527.527344 560.253906 C 531.558594 559.191406 535.605469 558.609375 539.554688 558.347656 C 543.511719 558.074219 547.3125 558.140625 551.203125 558.425781 C 555.070312 558.714844 558.988281 559.320312 562.847656 560.328125 C 566.699219 561.34375 570.460938 562.777344 573.933594 564.511719 C 577.421875 566.242188 580.554688 568.242188 583.4375 570.148438 C 586.316406 572.074219 588.914062 573.871094 591.460938 575.417969 C 594.007812 576.96875 596.488281 578.210938 599.054688 579.210938 C 601.625 580.214844 604.277344 580.945312 607.027344 581.449219 C 609.769531 581.941406 612.589844 582.246094 615.480469 582.324219 C 618.335938 582.410156 621.207031 582.390625 623.925781 582.097656 C 626.667969 581.828125 629.316406 581.363281 631.859375 580.660156 C 634.40625 579.960938 636.855469 579.019531 639.269531 577.859375 C 641.6875 576.703125 644.082031 575.324219 646.542969 573.816406 C 649.011719 572.308594 651.566406 570.695312 654.289062 569.179688 C 656.992188 567.652344 659.871094 566.242188 662.847656 565.09375 C 665.8125 563.957031 668.875 563.082031 671.910156 562.480469 C 674.949219 561.847656 677.972656 561.5625 680.933594 561.386719 C 681.667969 561.363281 682.398438 561.332031 683.140625 561.300781 C 683.867188 561.28125 684.597656 561.300781 685.316406 561.300781 C 686.765625 561.28125 688.203125 561.371094 689.632812 561.4375 C 690.34375 561.457031 691.0625 561.542969 691.78125 561.605469 C 692.488281 561.671875 693.199219 561.710938 693.910156 561.804688 C 695.34375 562.003906 696.75 562.179688 698.148438 562.460938 C 699.550781 562.691406 700.941406 563.050781 702.3125 563.375 C 703.003906 563.574219 703.683594 563.773438 704.363281 563.96875 C 705.035156 564.148438 705.695312 564.402344 706.367188 564.617188 C 709.019531 565.550781 711.566406 566.667969 713.949219 567.933594 C 716.339844 569.191406 718.566406 570.578125 720.660156 571.976562 C 724.859375 574.78125 728.550781 577.542969 732.308594 579.707031 C 734.183594 580.789062 736.066406 581.738281 737.972656 582.558594 C 739.878906 583.363281 741.824219 584.015625 743.777344 584.566406 C 747.6875 585.628906 751.664062 586.175781 755.5625 586.40625 C 759.46875 586.628906 763.265625 586.582031 766.847656 586.179688 C 766.984375 586.164062 767.113281 586.15625 767.242188 586.136719 C 778.605469 563.46875 787.890625 539.582031 794.882812 514.730469 C 792.632812 516.308594 790.28125 518.007812 787.664062 519.679688 C 784.933594 521.417969 781.917969 523.140625 778.546875 524.53125"/><path fill="#F1471D" d="M 251.933594 495.683594 C 254.1875 495.285156 256.457031 495.003906 258.703125 494.828125 L 260.160156 494.71875 C 260.644531 494.679688 261.125 494.679688 261.605469 494.664062 C 262.570312 494.632812 263.535156 494.574219 264.5 494.585938 C 265.46875 494.59375 266.4375 494.605469 267.410156 494.613281 C 268.386719 494.644531 269.367188 494.699219 270.351562 494.75 C 274.296875 495.023438 278.347656 495.605469 282.371094 496.664062 C 286.402344 497.695312 290.371094 499.261719 294.035156 501.109375 C 297.722656 502.957031 301.027344 505.066406 304.09375 507.003906 C 307.136719 508.925781 309.941406 510.6875 312.707031 512.046875 C 314.089844 512.757812 315.476562 513.320312 316.871094 513.875 C 318.277344 514.371094 319.691406 514.847656 321.160156 515.199219 C 324.082031 515.933594 327.160156 516.363281 330.371094 516.53125 C 333.582031 516.695312 336.949219 516.644531 340.128906 516.34375 C 343.324219 516.035156 346.371094 515.441406 349.28125 514.519531 C 349.644531 514.402344 350.011719 514.292969 350.371094 514.164062 L 351.445312 513.769531 L 351.984375 513.574219 L 352.515625 513.339844 L 353.582031 512.894531 C 354.992188 512.230469 356.398438 511.558594 357.835938 510.722656 C 359.269531 509.90625 360.722656 509.015625 362.257812 508.023438 C 363.863281 506.984375 365.464844 505.929688 367.070312 504.890625 C 370.433594 502.722656 374.273438 500.445312 378.460938 498.609375 C 382.65625 496.792969 387.15625 495.421875 391.640625 494.613281 C 396.128906 493.808594 400.589844 493.496094 404.953125 493.484375 C 409.316406 493.496094 413.769531 493.808594 418.261719 494.613281 C 422.746094 495.421875 427.246094 496.792969 431.445312 498.621094 C 435.628906 500.445312 439.46875 502.722656 442.832031 504.890625 C 444.433594 505.941406 446.042969 506.984375 447.644531 508.023438 C 449.179688 509.015625 450.628906 509.90625 452.070312 510.722656 C 453.496094 511.558594 454.90625 512.242188 456.316406 512.902344 L 457.386719 513.347656 L 457.921875 513.574219 L 458.457031 513.769531 L 459.523438 514.164062 C 459.894531 514.292969 460.253906 514.402344 460.613281 514.519531 C 463.53125 515.441406 466.574219 516.035156 469.773438 516.34375 C 472.953125 516.644531 476.324219 516.695312 479.535156 516.53125 C 482.746094 516.363281 485.824219 515.925781 488.742188 515.199219 C 490.210938 514.847656 491.621094 514.371094 493.03125 513.875 C 494.429688 513.320312 495.808594 512.75 497.191406 512.039062 C 499.960938 510.675781 502.761719 508.917969 505.804688 506.992188 C 508.878906 505.058594 512.175781 502.945312 515.867188 501.109375 C 519.535156 499.25 523.5 497.6875 527.527344 496.65625 C 531.558594 495.605469 535.605469 495.023438 539.554688 494.75 C 543.511719 494.476562 547.3125 494.542969 551.203125 494.835938 C 555.070312 495.128906 558.988281 495.734375 562.847656 496.742188 C 566.699219 497.753906 570.460938 499.195312 573.933594 500.925781 C 577.421875 502.644531 580.554688 504.648438 583.4375 506.566406 C 586.316406 508.480469 588.914062 510.289062 591.460938 511.824219 C 594.007812 513.371094 596.488281 514.625 599.054688 515.625 C 601.625 516.625 604.277344 517.355469 607.027344 517.851562 C 609.769531 518.347656 612.589844 518.65625 615.480469 518.738281 C 618.335938 518.824219 621.207031 518.804688 623.925781 518.511719 C 626.667969 518.238281 629.316406 517.773438 631.859375 517.074219 C 634.40625 516.375 636.855469 515.429688 639.269531 514.273438 C 641.6875 513.117188 644.082031 511.734375 646.542969 510.230469 C 649.011719 508.722656 651.566406 507.109375 654.289062 505.59375 C 656.992188 504.066406 659.871094 502.644531 662.847656 501.507812 C 665.8125 500.359375 668.875 499.492188 671.910156 498.894531 C 674.949219 498.257812 677.972656 497.976562 680.933594 497.804688 C 681.667969 497.773438 682.398438 497.746094 683.140625 497.714844 C 683.867188 497.695312 684.597656 497.714844 685.316406 497.714844 C 686.765625 497.695312 688.203125 497.785156 689.632812 497.851562 C 690.34375 497.871094 691.0625 497.949219 691.78125 498.007812 C 692.488281 498.085938 693.199219 498.121094 693.910156 498.222656 C 695.34375 498.414062 696.75 498.589844 698.148438 498.875 C 699.550781 499.105469 700.941406 499.457031 702.3125 499.785156 C 703.003906 499.980469 703.683594 500.175781 704.363281 500.371094 C 705.035156 500.566406 705.695312 500.820312 706.367188 501.03125 C 709.019531 501.953125 711.566406 503.082031 713.949219 504.335938 C 716.339844 505.601562 718.566406 506.992188 720.660156 508.378906 C 724.859375 511.183594 728.550781 513.945312 732.308594 516.109375 C 734.183594 517.199219 736.066406 518.144531 737.972656 518.96875 C 739.878906 519.777344 741.824219 520.421875 743.777344 520.980469 C 747.6875 522.042969 751.664062 522.578125 755.5625 522.808594 C 759.46875 523.042969 763.265625 522.984375 766.847656 522.597656 C 770.4375 522.199219 773.828125 521.457031 776.988281 520.410156 C 783.332031 518.328125 788.636719 514.925781 793.597656 512.007812 C 794.414062 511.523438 795.210938 511.066406 796.015625 510.617188 C 805.089844 476.929688 809.941406 441.511719 809.941406 404.953125 C 809.941406 392.136719 809.339844 379.46875 808.171875 366.957031 L 695.164062 362.773438 L 807.316406 358.613281 C 806.917969 355.085938 806.460938 351.5625 805.976562 348.054688 L 255.0625 348.054688 C 248.609375 404.289062 249.519531 457.355469 251.933594 495.683594"/><path fill="#F1471D" d="M 222.148438 354.929688 C 222.148438 354.929688 208.484375 348.910156 197.171875 352.332031 C 197.171875 352.332031 200.464844 354.0625 203.015625 357.570312 C 193.277344 353.539062 176.214844 354.46875 173.007812 353.578125 C 173.007812 353.578125 175.816406 354.824219 178.847656 357.835938 C 172.164062 356.105469 161.355469 358.417969 159.921875 358.019531 C 159.921875 358.019531 160.730469 358.425781 161.777344 359.078125 C 177.101562 359.460938 199.035156 367.625 209.523438 407.457031 C 209.523438 407.457031 200.433594 392.730469 193.445312 388.054688 C 193.445312 388.054688 194.605469 391.253906 193.890625 395.996094 C 191.800781 391.632812 182.355469 380.789062 180.683594 378.070312 C 180.683594 378.070312 181.78125 380.800781 181.734375 385.144531 C 179.394531 380.195312 169.640625 371.652344 168.03125 369.027344 C 168.03125 369.027344 169.109375 371.71875 169.085938 375.988281 C 165.648438 370.621094 159.214844 367.832031 158.496094 366.652344 C 158.496094 366.652344 158.585938 366.933594 158.71875 367.394531 C 172.839844 388.597656 193.753906 428.246094 211.847656 495.578125 C 215.308594 437.035156 221.867188 388.265625 229.75 348.054688 L 210.425781 348.054688 C 214.191406 349.875 218.101562 352.136719 222.148438 354.929688"/><path fill="#F47216" d="M 149.289062 349.277344 C 149.421875 348.878906 149.5625 348.472656 149.714844 348.054688 L 149.621094 348.054688 C 149.507812 348.460938 149.390625 348.871094 149.289062 349.277344"/><path fill="#F47216" d="M 157.753906 349.363281 C 157.753906 349.363281 158.648438 349.277344 159.910156 349.238281 C 160.5625 348.839844 161.238281 348.441406 161.9375 348.054688 L 159.902344 348.054688 C 158.917969 348.746094 158.175781 349.25 157.753906 349.363281"/><path fill="#F47216" d="M 277.667969 190.496094 C 277.539062 190.203125 277.410156 189.914062 277.28125 189.625 L 277.203125 189.625 C 277.363281 189.914062 277.519531 190.203125 277.667969 190.496094"/><path fill="#F1471D" d="M 0.628906 381.628906 L 52.292969 383.542969 L 0.429688 385.46875 C 0.125 391.925781 -0.0351562 398.417969 -0.0351562 404.953125 C -0.0351562 441.511719 4.808594 476.929688 13.890625 510.617188 C 14.6875 511.066406 15.488281 511.523438 16.304688 512.007812 C 21.265625 514.925781 26.574219 518.328125 32.910156 520.410156 C 36.070312 521.457031 39.460938 522.199219 43.050781 522.597656 C 46.640625 522.984375 50.433594 523.042969 54.335938 522.808594 C 58.234375 522.578125 62.210938 522.035156 66.125 520.972656 C 68.074219 520.421875 70.019531 519.777344 71.929688 518.96875 C 73.835938 518.144531 75.71875 517.199219 77.59375 516.109375 C 81.34375 513.945312 85.046875 511.183594 89.238281 508.378906 C 91.335938 506.992188 93.554688 505.59375 95.949219 504.335938 C 98.339844 503.074219 100.882812 501.953125 103.535156 501.03125 C 104.203125 500.808594 104.863281 500.554688 105.542969 500.371094 C 106.222656 500.175781 106.90625 499.980469 107.589844 499.785156 C 108.960938 499.457031 110.347656 499.09375 111.75 498.875 C 113.15625 498.582031 114.566406 498.414062 115.988281 498.222656 C 116.699219 498.121094 117.410156 498.085938 118.125 498.007812 C 118.835938 497.949219 119.554688 497.871094 120.269531 497.851562 C 121.699219 497.785156 123.136719 497.695312 124.582031 497.714844 C 125.308594 497.714844 126.035156 497.695312 126.765625 497.714844 C 127.5 497.746094 128.234375 497.773438 128.972656 497.804688 C 131.929688 497.976562 134.949219 498.257812 137.992188 498.894531 C 141.027344 499.492188 144.085938 500.371094 147.058594 501.507812 C 150.035156 502.652344 152.90625 504.066406 155.617188 505.59375 C 158.332031 507.109375 160.890625 508.730469 163.355469 510.230469 C 165.820312 511.734375 168.210938 513.117188 170.628906 514.273438 C 173.042969 515.429688 175.488281 516.375 178.039062 517.074219 C 180.585938 517.773438 183.230469 518.238281 185.972656 518.511719 C 188.582031 518.785156 191.320312 518.8125 194.0625 518.738281 C 189.078125 477.421875 176.800781 414.878906 146.640625 365.234375 C 145.453125 369.046875 143.921875 374.742188 144.339844 377.640625 C 143.132812 376.046875 142.324219 374.5 142.324219 374.5 C 142.671875 375.832031 140.238281 382.402344 141.734375 388.609375 C 138.628906 385.660156 137.4375 383.027344 137.4375 383.027344 C 138.214844 386.003906 137.632812 398.949219 139.589844 404.078125 C 136.421875 401.101562 135.203125 398.40625 135.203125 398.40625 C 136.015625 401.511719 137.304688 415.820312 139.003906 420.351562 C 135.089844 417.589844 133.585938 414.539062 133.585938 414.539062 C 132.125 422.820312 136.464844 439.574219 136.464844 439.574219 C 115.410156 405.15625 123.886719 383.84375 133.945312 372.332031 C 134.234375 370.847656 134.578125 369.71875 134.578125 369.71875 C 133.871094 371.027344 124.71875 377.222656 121.34375 383.25 C 121.273438 378.980469 122.316406 376.082031 122.316406 376.082031 C 120.738281 379.019531 108.261719 390.699219 104.4375 400.519531 C 103.664062 396.25 104.695312 392.671875 104.695312 392.671875 C 94.394531 398.464844 89.277344 412.496094 89.277344 412.496094 C 94.625 379.566406 112.878906 367.820312 127.597656 363.804688 C 124.589844 364.417969 120.578125 365.398438 116.921875 367.480469 C 119.511719 363.660156 122.109375 361.636719 122.109375 361.636719 C 119.074219 363.425781 105.183594 367.703125 100.078125 371.320312 C 102.691406 367.429688 105.335938 365.371094 105.335938 365.371094 C 102.1875 367.226562 87.171875 373.664062 82.644531 376.832031 C 84.894531 372.367188 87.882812 369.917969 87.882812 369.917969 C 78.808594 371.707031 61.738281 381.714844 61.738281 381.714844 C 94.296875 350.847656 118.292969 350.046875 132.386719 354.449219 C 133.664062 354.121094 134.585938 353.957031 134.585938 353.957031 C 133.066406 353.957031 127.28125 350.347656 120.21875 350.261719 C 122.847656 349.027344 125.066406 348.375 126.414062 348.054688 L 3.941406 348.054688 C 2.386719 359.109375 1.277344 370.308594 0.628906 381.628906"/><path fill="#F47216" d="M 303.117188 194.085938 C 303.117188 194.085938 304.683594 194.113281 306.878906 194.308594 C 310.332031 192.546875 314.234375 190.933594 318.589844 189.625 L 311.136719 189.625 C 307.183594 191.847656 304.386719 193.882812 303.117188 194.085938"/><path fill="#F25C19" d="M 672.015625 265.546875 C 667.523438 259.054688 656.429688 246.074219 640.171875 247.492188 C 640.171875 247.492188 661.339844 239.589844 672.980469 257.320312 C 688.386719 242.757812 707.160156 255.320312 707.160156 255.320312 C 691.664062 250.191406 677.878906 260.269531 672.015625 265.546875 Z M 611.414062 284.175781 C 606.574219 277.15625 594.582031 263.136719 577.023438 264.664062 C 577.023438 264.664062 599.878906 256.136719 612.457031 275.277344 C 629.109375 259.546875 649.390625 273.121094 649.390625 273.121094 C 632.648438 267.585938 617.753906 278.46875 611.414062 284.175781 Z M 523.207031 231.957031 C 523.207031 231.957031 544.375 224.058594 556.015625 241.785156 C 571.421875 227.21875 590.199219 239.789062 590.199219 239.789062 C 574.699219 234.667969 560.914062 244.730469 555.050781 250.019531 C 550.566406 243.523438 539.472656 230.546875 523.207031 231.957031 Z M 617.421875 223.167969 C 628.4375 212.753906 641.855469 221.734375 641.855469 221.734375 C 630.78125 218.070312 620.933594 225.265625 616.738281 229.046875 C 613.535156 224.410156 605.609375 215.132812 593.984375 216.136719 C 593.984375 216.136719 609.109375 210.496094 617.421875 223.167969 Z M 367.414062 189.625 C 385.175781 193.980469 406.109375 203.085938 430.523438 219.480469 C 430.523438 219.480469 399.695312 207.773438 384.285156 207.355469 C 384.285156 207.355469 389.875 210.566406 394.820312 217.265625 C 386.5 213.308594 360.039062 206.90625 354.347656 204.730469 C 354.347656 204.730469 359.269531 207.386719 364.636719 213.046875 C 355.246094 208.523438 331.242188 205.34375 325.757812 203.242188 C 325.757812 203.242188 330.585938 205.847656 335.898438 211.402344 C 329.316406 209 322.445312 208.503906 317.335938 208.339844 C 342.636719 210.847656 375.890625 225.082031 393.8125 277.703125 C 393.8125 277.703125 381.519531 256.074219 362.988281 249.40625 C 362.988281 249.40625 365.664062 254.996094 365.589844 262.234375 C 356.574219 247.152344 332.832031 231.4375 329.425781 227.054688 C 329.425781 227.054688 331.945312 231.519531 333.011719 238.546875 C 325.792969 229.59375 309.039062 221.953125 307.515625 219.996094 C 307.515625 219.996094 308.394531 221.746094 309.273438 224.121094 C 329 240.226562 348.839844 272.898438 323.804688 335.289062 C 323.804688 335.289062 326.28125 306.558594 321.585938 293.351562 C 321.585938 293.351562 319.957031 298.789062 314.292969 304.421875 C 315.828125 296.503906 313.972656 272.617188 314.445312 267.304688 C 314.445312 267.304688 313.191406 272.0625 308.808594 277.828125 C 310.609375 268.882812 306.054688 247.761719 306.511719 242.648438 C 306.511719 242.648438 305.277344 247.316406 300.996094 253.015625 C 301.734375 242.40625 295.910156 232.273438 296.113281 230 C 296.113281 230 295.214844 232.761719 293.671875 235.707031 C 293.550781 230.839844 289.457031 221.902344 286.445312 215.96875 C 269.628906 258.246094 260.097656 304.117188 255.0625 348.054688 L 805.976562 348.054688 C 797.875 290.464844 777.664062 236.777344 748.007812 189.625 L 367.414062 189.625"/><path fill="#F47216" d="M 260.210938 193.375 C 262.289062 193.082031 263.785156 192.984375 263.785156 192.984375 C 262.609375 192.859375 259.871094 191.363281 256.113281 189.625 L 248.75 189.625 C 252.839844 190.652344 256.667969 191.9375 260.210938 193.375"/><path fill="#F47216" d="M 309.867188 207.910156 C 309.828125 207.898438 309.78125 207.878906 309.75 207.871094 C 309.75 207.871094 309.769531 207.890625 309.808594 207.910156 C 309.828125 207.910156 309.847656 207.910156 309.867188 207.910156"/><path fill="#F47216" d="M 132.042969 362.773438 C 132.023438 362.78125 131.996094 362.792969 131.972656 362.800781 C 131.988281 362.800781 132 362.800781 132.011719 362.792969 C 132.03125 362.78125 132.042969 362.773438 132.042969 362.773438"/><path fill="#F25C19" d="M 267.363281 221.601562 C 266.507812 223.722656 256.71875 230.097656 252.558594 239.878906 C 251.328125 232.859375 252.351562 228.140625 252.351562 228.140625 C 250.4375 232.910156 236.78125 249.640625 234.316406 258.429688 C 233.035156 251.300781 234.074219 246.5 234.074219 246.5 C 232.089844 251.449219 219.578125 271.875 217.347656 279.628906 C 214.859375 272.042969 215.878906 266.460938 215.878906 266.460938 C 205.695312 276.085938 194.847656 302.804688 194.847656 302.804688 C 201.027344 234.441406 234.792969 214.941406 259.871094 210.058594 C 261.414062 208.695312 262.617188 207.804688 262.617188 207.804688 C 260.375 208.851562 241.972656 208.046875 231.472656 212.753906 C 235.621094 206.96875 239.890625 204.140625 239.890625 204.140625 C 234.863281 206.488281 206.578125 209.699219 191.695312 219.035156 C 194.910156 212.558594 199.839844 208.796875 199.839844 208.796875 C 180.304688 206.316406 159.519531 219.996094 159.519531 219.996094 C 177.414062 202.621094 194.539062 193.53125 210.125 189.625 L 61.898438 189.625 C 50.832031 207.21875 41.078125 225.722656 32.785156 245 L 64.761719 246.191406 L 186.175781 250.691406 L 64.761719 255.191406 L 28.015625 256.554688 C 16.585938 285.566406 8.417969 316.210938 3.941406 348.054688 L 126.414062 348.054688 C 127.308594 347.84375 127.828125 347.761719 127.828125 347.761719 C 124.40625 347.773438 111.234375 344.351562 105.101562 344.902344 C 109.523438 342.8125 112.824219 342.359375 112.824219 342.359375 C 109.277344 342.363281 93.894531 340.265625 88.472656 340.722656 C 92.996094 337.933594 96.800781 337.300781 96.800781 337.300781 C 88.832031 334.167969 69.636719 334.179688 69.636719 334.179688 C 114.703125 323.449219 133.113281 336.019531 140.625 347.5 C 135.59375 334.8125 135.378906 311.582031 174.644531 281.859375 C 174.644531 281.859375 162.429688 296.667969 159.785156 304.820312 C 159.785156 304.820312 162.6875 302.277344 167.722656 300.570312 C 163.917969 304.457031 155.761719 317.660156 153.492188 320.394531 C 153.492188 320.394531 155.945312 318.136719 160.375 316.058594 C 156.050781 320.433594 150.320312 332.777344 148.136719 335.414062 C 148.136719 335.414062 150.542969 333.195312 154.898438 331.132812 C 150.476562 336.636719 149.585938 343.398438 148.613281 344.570312 C 148.613281 344.570312 150.125 343.300781 152.035156 342.074219 C 151.089844 343.457031 150.28125 345.691406 149.621094 348.054688 L 149.714844 348.054688 C 154.652344 334.492188 170.359375 314.101562 220.082031 311.730469 C 220.082031 311.730469 201.042969 317.117188 193.472656 322.433594 C 193.472656 322.433594 197.308594 321.976562 202.09375 323.4375 C 196.667969 324.507812 181.632812 330.902344 178.113281 331.886719 C 178.113281 331.886719 181.429688 331.40625 186.042969 332.207031 C 179.90625 333.390625 167.199219 340.449219 163.808594 341.40625 C 163.808594 341.40625 167.066406 340.9375 171.613281 341.703125 C 166.589844 343.199219 162.417969 346.273438 159.902344 348.054688 L 161.9375 348.054688 C 173.089844 341.828125 189.554688 337.988281 210.425781 348.054688 L 229.75 348.054688 C 241.257812 289.339844 255.585938 248.863281 267.199219 222.875 C 267.289062 222.089844 267.363281 221.601562 267.363281 221.601562"/><path fill="#F47216" d="M 248.75 189.625 L 256.113281 189.625 C 251.554688 187.523438 245.5 185.050781 238.886719 184.257812 C 246.140625 181.714844 251.628906 181.589844 251.628906 181.589844 C 245.789062 180.96875 222.957031 172.890625 212.539062 172.648438 C 219.894531 170.050781 225.484375 169.917969 225.484375 169.917969 C 219.421875 169.273438 192.945312 162.941406 183.738281 162.6875 C 191.1875 158.964844 197.621094 158.65625 197.621094 158.65625 C 183.707031 152.023438 150.929688 148.4375 150.929688 148.4375 C 234.648438 138.375 265.785156 168.660156 277.203125 189.625 L 277.28125 189.625 C 275.410156 185.53125 273.273438 181.621094 271.15625 179.414062 C 274.632812 180.898438 277.472656 182.5625 277.472656 182.5625 C 275.546875 180.910156 272.203125 170.050781 263.414062 162.234375 C 271.144531 164.421875 275.714844 167.398438 275.714844 167.398438 C 271.398438 163.671875 258.554688 144.976562 250.226562 138.984375 C 258.089844 141.183594 262.742188 144.207031 262.742188 144.207031 C 258.261719 140.347656 241.183594 120.902344 233.859375 115.574219 C 242.605469 116.992188 248.078125 120.355469 248.078125 120.355469 C 241.472656 107.710938 217.296875 86.765625 217.296875 86.765625 C 290.0625 124.707031 296.15625 162.925781 291.40625 185.160156 C 300.5625 164.214844 327.324219 138.441406 404.351562 143.578125 C 404.351562 143.578125 372.804688 148.882812 360.582031 156.253906 C 360.582031 156.253906 367.011719 156.222656 375.21875 159.558594 C 366.1875 160.300781 341.492188 168.027344 335.652344 168.988281 C 335.652344 168.988281 341.203125 168.824219 349.058594 171.042969 C 338.824219 171.832031 318.132812 181.117188 312.511719 182.046875 C 312.511719 182.046875 317.960938 181.882812 325.699219 184.039062 C 319.976562 185.082031 315.003906 187.445312 311.136719 189.625 L 318.589844 189.625 C 330.996094 185.898438 347.132812 184.65625 367.414062 189.625 L 748.007812 189.625 C 723.769531 151.089844 693.210938 116.914062 657.792969 88.574219 L 573.746094 85.460938 L 650.175781 82.632812 C 582.109375 30.761719 497.132812 -0.0390625 404.953125 -0.0390625 C 348.136719 -0.0390625 294.0625 11.667969 244.992188 32.785156 L 253.390625 33.09375 L 374.804688 37.601562 L 253.390625 42.101562 L 222.632812 43.234375 C 156.65625 76.554688 101.042969 127.386719 61.898438 189.625 L 210.125 189.625 C 224.519531 186.023438 237.597656 186.832031 248.75 189.625"/></svg>